<svg version="1.1" xmlns="http://www.w3.org/2000/svg" viewBox="0 0 91.33 91.36" fill="#3EB96B"><path d="M96.07,64.46a10.54,10.54,0,1,1,10.54-10.54A10.55,10.55,0,0,1,96.07,64.46m0-14.05a3.51,3.51,0,1,0,3.51,3.51,3.52,3.52,0,0,0-3.51-3.51m21.08,0h0ZM70,120.68a12.42,12.42,0,0,1-9.11-3.51L32.82,89.05c-5.13-5.13-4.15-13.42,0-17.57L64.45,39.86a4,4,0,0,1,5.34-.22c1.4,1.4,1.94,3.48-.47,5.89l-30.7,30.7c-3.18,3.18-2.83,5.24.14,8.21l27.34,27.34c2.44,2.44,4.61,2.64,7.44-.19L110.13,75c2.8-2.8,3.51-5.12,3.51-10.54V50.4c0-12.08-2-14.05-14.05-14.05H78.5a3.51,3.51,0,1,1,0-7H99.58c16,0,21.08,5.12,21.08,21.08V64.46c0,8.1-.91,11.45-7,17.57L78.5,117.16A12.09,12.09,0,0,1,70,120.68" transform="translate(-29.33 -29.32)"/></svg>