<svg version="1.1" xmlns="http://www.w3.org/2000/svg" viewBox="0 0 99.72 111.6" fill="#fff"><path d="M57.56,52.74a161.33,161.33,0,0,1,25.38-4.08C104.61,47.42,107,27.3,107,27.3s-0.73,8.87-23.09,10.44C72.55,38.55,61.34,45.82,57.56,52.74Z" transform="translate(-25.14 -19.2)"/><path d="M52.35,19.2s10.37,10.3,2.66,20-4.74,19.25-4.74,19.25-8.36-8.63-7.05-21S53.65,28.38,52.35,19.2Z" transform="translate(-25.14 -19.2)"/><path d="M37.29,58.41S63.76,81.75,98.86,76.81c19.07-3.19,21.67-14.15,3.73-22.53C102.58,54.28,114.7,84.46,37.29,58.41Z" transform="translate(-25.14 -19.2)"/><path d="M33.61,55S29.13,113.91,78,117c45,1.9,37-38.9,37-38.9s-1.85,23.35-24.39,27.38C83.49,106.77,40.19,111.48,33.61,55Z" transform="translate(-25.14 -19.2)"/><path d="M48.33,120.07A7.42,7.42,0,1,1,42.28,114,7.42,7.42,0,0,1,48.33,120.07Z" transform="translate(-25.14 -19.2)"/><path d="M33.49,105.53a4.24,4.24,0,0,1-5.09,5.09,4.2,4.2,0,0,1-3.15-3.15,4.24,4.24,0,0,1,5.09-5.09A4.2,4.2,0,0,1,33.49,105.53Z" transform="translate(-25.14 -19.2)"/><path d="M117.84,110.41A7.42,7.42,0,1,1,110.6,115,7.42,7.42,0,0,1,117.84,110.41Z" transform="translate(-25.14 -19.2)"/><path d="M96.27,122.33a4.24,4.24,0,0,1,3.84,6.09,4.2,4.2,0,0,1-3.77,2.38,4.24,4.24,0,0,1-3.84-6.09A4.2,4.2,0,0,1,96.27,122.33Z" transform="translate(-25.14 -19.2)"/></svg>