<svg version="1.1" xmlns="http://www.w3.org/2000/svg" viewBox="0 0 84.91 94" fill="#3EB96B"><path d="M112.67,40.83H91C90.14,29.64,82.53,28,75.07,28S60,29.64,59.11,40.83H37.47a5,5,0,0,0-4.92,4.92v3.73a6.77,6.77,0,0,0,4.63,6.42l3.88,54.61c0,6.27,5.52,11.49,12.23,11.49H97.75c6.71,0,12.23-5.22,12.23-11.49l2.83-54.61a6.77,6.77,0,0,0,4.63-6.42V45.76a4.66,4.66,0,0,0-4.77-4.92h0ZM75.22,32.48c7,0,10.74,1.34,11.49,8.36H63.88c0.45-7,4.33-8.36,11.34-8.36h0Zm-38,13.28a0.4,0.4,0,0,1,.45-0.45h75.05a0.4,0.4,0,0,1,.45.45v3.73a2.36,2.36,0,0,1-2.39,2.39H39.41A2.36,2.36,0,0,1,37,49.49V45.76h0.15ZM73.88,56.2v61.17H60.6V56.2H73.88Zm4.48,0H91.63v61.17H78.35V56.2h0ZM45.68,110.36L41.8,56.2H56.27v61.18H53.44c-4.33,0-7.76-3.13-7.76-7h0Zm60,0c0,3.88-3.43,7-7.76,7H96.11V56.2h12.38l-2.83,54.16h0Z" transform="translate(-32.55 -28)"/></svg>