<svg version="1.1" xmlns="http://www.w3.org/2000/svg" xmlns:xlink="http://www.w3.org/1999/xlink"  viewBox="0 0 100 100">
    <title>放大镜</title>
    <path d="M87.5,83L87.5,83L71.7,67.3c7.9-9,10.6-21.4,7.1-32.8c-0.7-2.2-2.9-3.4-5.1-2.7c-2.2,0.7-3.4,2.9-2.7,5.1c4.2,13.9-3.6,28.6-17.5,32.9c-13.9,4.2-28.6-3.6-32.9-17.5c-4.2-13.9,3.6-28.6,17.5-32.9c4.9-1.5,10.2-1.5,15.1-0.1c2.2,0.6,4.4-0.6,5.1-2.7c0.6-2.2-0.6-4.4-2.7-5.1c-18.3-5.4-37.5,5-42.9,23.3s5,37.5,23.3,42.9c10.1,3,21.1,1.2,29.7-4.9l16.1,16.1c1.6,1.6,4.2,1.6,5.8,0S89.1,84.6,87.5,83z"/>
    <ellipse transform="matrix(0.7071 -0.7071 0.7071 0.7071 3.5645 54.1801)" cx="67.2" cy="22.8" rx="4.4" ry="4.4"/>
</svg>