<svg version="1.1" xmlns="http://www.w3.org/2000/svg" xmlns:xlink="http://www.w3.org/1999/xlink"  viewBox="0 0 100 100">
    <title>实星</title>
    <path d="M87.6,38.8l-24.3-3.6L52.5,13c-0.3-0.6-0.7-1-1.3-1.3c-1.4-0.7-3-0.1-3.7,1.3L36.7,35.2l-24.3,3.6c-0.6,0.1-1.1,0.4-1.6,0.8c-1.1,1.1-1.1,2.8,0,3.9l17.5,17.3l-4.1,24.5c-0.1,0.6,0,1.2,0.3,1.8c0.7,1.4,2.4,1.9,3.8,1.2L50,76.7l21.7,11.6c0.5,0.3,1.2,0.4,1.8,0.3c1.5-0.3,2.5-1.7,2.2-3.2l-4.1-24.5l17.6-17.3c0.4-0.4,0.7-1,0.8-1.6c0,0,0-0.1,0-0.1C90.2,40.4,89.1,39,87.6,38.8z"/>
</svg>