<svg version="1.1" xmlns="http://www.w3.org/2000/svg" xmlns:xlink="http://www.w3.org/1999/xlink"  viewBox="0 0 100 100">
    <title>更多</title>
    <circle cx="85.3" cy="20.7" r="4.7"/>
    <path d="M14.6,25.3h56.8c2.5,0,4.6-2.1,4.6-4.6s-2.1-4.6-4.6-4.6H14.6c-2.5,0-4.6,2.1-4.6,4.6S12.1,25.3,14.6,25.3z"/>
    <path d="M85.4,45.5H14.6c-2.5,0-4.6,2.1-4.6,4.6s2.1,4.6,4.6,4.6h70.8c2.5,0,4.6-2.1,4.6-4.6S87.9,45.5,85.4,45.5z"/>
    <path d="M85.4,74.8H14.6c-2.5,0-4.6,2.1-4.6,4.6s2.1,4.6,4.6,4.6h70.8c2.5,0,4.6-2.1,4.6-4.6S87.9,74.8,85.4,74.8z"/>
</svg>