<svg version="1.1" xmlns="http://www.w3.org/2000/svg" xmlns:xlink="http://www.w3.org/1999/xlink"  viewBox="0 0 100 100">
    <title>屋子</title>
    <path d="M52.7,14.6c-1.5-1.4-3.8-1.4-5.3,0L11.2,49.3c-1.5,1.5-1.6,3.9-0.1,5.4s3.9,1.6,5.4,0.1l3.6-3.5v31.3c0,2.1,1.7,3.8,3.8,3.8h52.3c2.1,0,3.8-1.7,3.8-3.8V64.5c0-2.1-1.7-3.8-3.8-3.8s-3.8,1.7-3.8,3.8v14.4H27.7V44L50,22.7l24.9,23.8c1.5,1.5,4,1.4,5.4-0.1s1.4-4-0.1-5.4L52.7,14.6z"/>
    <circle cx="86.2" cy="52.1" r="3.8"/>
    <path d="M59.9,59.3c-0.1,0.1-0.1,0.1-0.2,0.2h0c0,0-3.6,4.6-9.2,4.6s-9.1-4.5-9.2-4.6c-1.1-1.5-3.2-1.7-4.7-0.6c-1.4,1.1-1.7,3.1-0.7,4.6c0.2,0.3,5.5,7.3,14.6,7.3s14.4-7,14.6-7.3c1.2-1.4,0.9-3.5-0.5-4.7C63.1,57.7,61,57.9,59.9,59.3z"/>
</svg>