<svg xmlns="http://www.w3.org/2000/svg" viewBox="0 0 50 50" fill="#999999"><path d="M25,9.38A15.63,15.63,0,1,0,40.63,25,15.62,15.62,0,0,0,25,9.38Zm0,2A13.6,13.6,0,0,1,36,33c-1-2.23-3.63-4-7.22-4.76A7.62,7.62,0,0,0,25,14a8.15,8.15,0,0,0-3.11.65A7.61,7.61,0,0,0,18,24.75a7.82,7.82,0,0,0,3.19,3.52C17.71,29,15.06,30.81,14,33A13.6,13.6,0,0,1,25,11.38Zm5.81,10.27a5.5,5.5,0,0,1-1.72,4.09,5.79,5.79,0,0,1-9.9-4.09,5.5,5.5,0,0,1,1.72-4.09A6,6,0,0,1,25,15.83,5.83,5.83,0,0,1,30.81,21.64Zm-15.42,13c0.47-2.72,4.67-4.9,9.61-4.9s9.14,2.18,9.61,4.9A13.6,13.6,0,0,1,15.39,34.65Z"/></svg>