<?xml version="1.0" encoding="utf-8"?>
<!-- Generator: Adobe Illustrator 20.0.0, SVG Export Plug-In . SVG Version: 6.00 Build 0)  -->
<svg version="1.1" id="图层_1" xmlns="http://www.w3.org/2000/svg" xmlns:xlink="http://www.w3.org/1999/xlink" x="0px" y="0px"
	 viewBox="0 0 100 100" style="enable-background:new 0 0 100 100;" xml:space="preserve">
<g>
	<path d="M19,44.5h17.7c4.6,0,8.4-3.8,8.4-8.4V18.4c0-4.6-3.8-8.4-8.4-8.4H19c-4.6,0-8.4,3.8-8.4,8.4v17.7
		C10.6,40.7,14.3,44.4,19,44.5z M17.8,22.1c0-2.7,2.2-4.9,4.9-4.9h10.3c2.7,0,4.9,2.2,4.9,4.9v10.3c0,2.7-2.2,4.9-4.9,4.9H22.7
		c-2.7,0-4.9-2.2-4.9-4.9V22.1z"/>
	<path d="M27.8,54.1c-9.7,0-17.5,7.8-17.5,17.5s7.8,17.5,17.5,17.5c9.7,0,17.5-7.8,17.5-17.5c0,0,0,0,0,0
		C45.3,62,37.4,54.1,27.8,54.1z M27.8,81.6C27.8,81.6,27.8,81.6,27.8,81.6L27.8,81.6c-5.5,0-10-4.5-10-10s4.5-10,10-10s10,4.5,10,10
		C37.8,77.1,33.3,81.6,27.8,81.6z"/>
	<path d="M89.2,37.9L89.2,37.9l-14.4-25c-1-1.8-3.3-2.4-5.1-1.4c-0.6,0.3-1,0.8-1.4,1.4l-14.4,25c-1,1.8-0.4,4.1,1.4,5.1
		c0.6,0.3,1.2,0.5,1.8,0.5H86c2.1,0,3.7-1.7,3.7-3.8C89.7,39,89.5,38.4,89.2,37.9z M63.6,36l8-13.8l8,13.8H63.6z"/>
	<ellipse transform="matrix(0.7071 -0.7071 0.7071 0.7071 -19.4873 74.1185)" cx="79.7" cy="60.6" rx="3.7" ry="3.7"/>
	<path d="M83.7,80.2c1.8-2.8,2.7-6.1,2.7-9.4c0-2-1.7-3.7-3.7-3.7h-0.1c-2.1,0-3.7,1.7-3.7,3.8c0,0,0,0,0,0c0.1,5.3-4.1,9.7-9.4,9.8
		c-5.3,0.1-9.7-4.1-9.8-9.4c-0.1-5.3,4.1-9.7,9.4-9.8c0.2,0,0.4,0,0.6,0c2.1,0.1,3.8-1.6,3.9-3.6s-1.6-3.8-3.6-3.9
		c-9.4-0.4-17.4,6.9-17.8,16.4c-0.4,9.4,6.9,17.4,16.4,17.8c3.5,0.1,7-0.8,10-2.7l3.7,3.6c1.2,1.2,3.2,1.2,4.4,0l0.9-0.9
		c1.2-1.2,1.2-3.2,0-4.4L83.7,80.2z"/>
</g>
</svg>
