<?xml version="1.0" encoding="utf-8"?>
<!-- Generator: Adobe Illustrator 20.0.0, SVG Export Plug-In . SVG Version: 6.00 Build 0)  -->
<svg version="1.1" id="图层_1" xmlns="http://www.w3.org/2000/svg" xmlns:xlink="http://www.w3.org/1999/xlink" x="0px" y="0px"
	 viewBox="0 0 100 100" style="enable-background:new 0 0 100 100;" xml:space="preserve">
<g>
	<path d="M18.6,44.9h17.5c4.6,0,8.3-3.7,8.3-8.3V19.1c0-4.6-3.7-8.3-8.3-8.3H18.6c-4.6,0-8.3,3.7-8.3,8.3v17.5
		C10.3,41.2,14,44.9,18.6,44.9z M17.5,22.8c0-2.7,2.1-4.8,4.7-4.8h10.2c2.7,0,4.8,2.2,4.8,4.8V33c0,2.7-2.2,4.8-4.8,4.8H22.3
		c-2.7,0-4.8-2.2-4.8-4.8V22.8z"/>
	<path d="M27.4,54.5c-9.6,0-17.3,7.8-17.4,17.3c0,9.6,7.8,17.3,17.3,17.4c9.6,0,17.3-7.8,17.4-17.3C44.7,62.3,36.9,54.6,27.4,54.5z
		 M27.4,81.8c-5.5,0-9.9-4.5-9.9-9.9c0-5.5,4.4-9.9,9.9-9.9s9.9,4.4,9.9,9.9C37.2,77.3,32.8,81.8,27.4,81.8z"/>
	<path d="M85.5,58.9H58.2c-2.3,0-4.2,1.9-4.2,4.2c0,2.3,1.9,4.2,4.2,4.2h27.3c2.3,0,4.2-1.9,4.2-4.2C89.7,60.8,87.9,58.9,85.5,58.9z
		"/>
	<path d="M85.5,77.5H58.2c-2.3,0-4.2,1.9-4.2,4.2s1.9,4.2,4.2,4.2h27.3c2.3,0,4.2-1.9,4.2-4.2S87.9,77.5,85.5,77.5z"/>
	<path d="M58.2,22.8h13.4c2.3,0,4.2-1.9,4.2-4.2c0-2.3-1.9-4.2-4.2-4.2H58.2c-2.3,0-4.2,1.9-4.2,4.2C53.9,20.9,55.8,22.8,58.2,22.8z
		"/>
	<path d="M85.5,32.9H58.2c-2.3,0-4.2,1.9-4.2,4.2c0,2.3,1.9,4.2,4.2,4.2h27.3c2.3,0,4.2-1.9,4.2-4.2C89.8,34.8,87.9,32.9,85.5,32.9z
		"/>
	<circle cx="85.5" cy="18.6" r="4.5"/>
</g>
</svg>
