<?xml version="1.0" encoding="utf-8"?>
<!-- Generator: Adobe Illustrator 20.0.0, SVG Export Plug-In . SVG Version: 6.00 Build 0)  -->
<svg version="1.1" id="图层_1" xmlns="http://www.w3.org/2000/svg" xmlns:xlink="http://www.w3.org/1999/xlink" x="0px" y="0px"
	 viewBox="0 0 100 100" style="enable-background:new 0 0 100 100;" xml:space="preserve">
<g>
	<path d="M36,28.9c-4.5,0-8.1,3.6-8.1,8.1s3.6,8.1,8.1,8.1s8.1-3.6,8.1-8.1S40.4,28.9,36,28.9z M36,40.1c-1.7,0-3.1-1.4-3.1-3.1
		S34.3,34,36,34S39,35.3,39,37C39,38.7,37.6,40.1,36,40.1z"/>
	<path d="M78.7,18.9H21.3C15,18.9,10,24,10,30.2v39c0,6.2,5,11.2,11.3,11.3h32.6c1.9,0,3.4-1.5,3.4-3.4c0-1.9-1.5-3.4-3.4-3.4H21.3
		c-2.4,0-4.4-1.9-4.5-4.3l15-12.7l11.3,10.1c1.3,1.1,3.2,1.1,4.5,0l17.5-16.2l18.2,16.9v1.7c0,2.5-2,4.5-4.5,4.5h-1.1
		c-1.9,0-3.4,1.5-3.4,3.4c0,1.9,1.5,3.4,3.4,3.4h1.1c6.2,0,11.2-5,11.2-11.2v-39C90,24,85,18.9,78.7,18.9z M83.2,58.5L67.3,43.7
		c-1.3-1.2-3.2-1.2-4.5,0L45.2,59.9L34,49.9c-1.2-1.1-3.1-1.1-4.3-0.1L16.7,60.7V30.2c0-2.5,2-4.5,4.5-4.5h57.5c2.5,0,4.5,2,4.5,4.5
		V58.5z"/>
	<circle cx="65.9" cy="77.1" r="4"/>
</g>
</svg>
