<?xml version="1.0" encoding="utf-8"?>
<!-- Generator: Adobe Illustrator 20.0.0, SVG Export Plug-In . SVG Version: 6.00 Build 0)  -->
<svg version="1.1" id="图层_1" xmlns="http://www.w3.org/2000/svg" xmlns:xlink="http://www.w3.org/1999/xlink" x="0px" y="0px"
	 viewBox="0 0 100 100" style="enable-background:new 0 0 100 100;" xml:space="preserve">
<g>
	<circle cx="85.2" cy="74" r="4.8"/>
	<path d="M68.9,69.8H14.2c-2.3,0-4.2,1.9-4.2,4.2s1.9,4.2,4.2,4.2h54.7c2.3,0,4.2-1.9,4.2-4.2S71.2,69.8,68.9,69.8z"/>
	<path d="M14.3,59C14.3,59,14.3,59,14.3,59c0.1,0,0.1,0,0.1,0h71.4c2.3,0,4.2-1.9,4.2-4.2s-1.9-4.2-4.2-4.2H25.2l24.1-21.9
		c1.7-1.6,1.9-4.2,0.3-6c-1.5-1.8-4.2-1.9-6-0.4L11.4,51.8l0,0c-0.8,0.8-1.3,1.9-1.3,3.1C10.2,57.2,12,58.9,14.3,59z"/>
</g>
</svg>
