<?xml version="1.0" encoding="utf-8"?>
<!-- Generator: Adobe Illustrator 20.0.0, SVG Export Plug-In . SVG Version: 6.00 Build 0)  -->
<svg version="1.1" id="图层_1" xmlns="http://www.w3.org/2000/svg" xmlns:xlink="http://www.w3.org/1999/xlink" x="0px" y="0px"
	 viewBox="0 0 100 100" style="enable-background:new 0 0 100 100;" xml:space="preserve">
<g>
	<path d="M86.6,33.9L86.6,33.9c-0.9-2-3.2-2.9-5.2-2c-2,0.9-2.9,3.2-2,5.2c4.5,10.2,3.4,22-2.9,31.1c-0.4,0.7-0.7,1.4-0.7,2.2v11.8
		L50,82.1c-17.7,0-32.1-14.4-32.1-32.1S32.3,17.9,50,17.9c4.3,0,8.5,0.9,12.5,2.5c2,0.8,4.3-0.1,5.2-2.1s-0.1-4.3-2.1-5.2
		c-20.4-8.6-43.8,1-52.4,21.3c-8.6,20.4,1,43.8,21.3,52.4C39.4,88.9,44.7,90,50,90c8.4,0,29.7,0,29.7,0c2.2,0,3.9-1.7,4-3.9V71.6
		C90.9,60.3,92,46.1,86.6,33.9z"/>
	<path d="M25.6,44.6c0,2.2,1.8,4,4,4H70c2.2,0,4-1.8,4-4s-1.8-4-4-4H29.6C27.4,40.6,25.6,42.4,25.6,44.6z"/>
	<path d="M36.6,55.5c-2.2,0-4,1.8-4,4c0,2.2,1.8,4,4,4H63c2.2,0,4-1.8,4-4c0-2.2-1.8-4-4-4H36.6z"/>
	<circle cx="75.3" cy="24.3" r="4.2"/>
</g>
</svg>
