<?xml version="1.0" encoding="utf-8"?>
<!-- Generator: Adobe Illustrator 20.0.0, SVG Export Plug-In . SVG Version: 6.00 Build 0)  -->
<svg version="1.1" id="图层_1" xmlns="http://www.w3.org/2000/svg" xmlns:xlink="http://www.w3.org/1999/xlink" x="0px" y="0px"
	 viewBox="0 0 100 100" style="enable-background:new 0 0 100 100;" xml:space="preserve">
<g>
	<path d="M69.5,24.5c-0.2-0.2-0.4-0.3-0.6-0.5L47.4,11.4c-1.8-1.1-4.2-0.5-5.2,1.4L10.7,66.3l0,0c-0.6,0.9-0.7,2-0.5,3l4.3,16.8
		c0.4,1.7,1.9,2.8,3.6,2.9c0.3,0.1,0.6,0.1,0.9,0.1s0.7,0,1-0.1l16.3-4.2c1.1-0.3,2-1,2.5-2l31.5-53.5
		C71.2,27.8,70.9,25.7,69.5,24.5z M32.8,77.7l-11.8,3L18,69l20.3-34.5l14.8,8.7L32.8,77.7z M57,36.6l-14.9-8.7l4.7-7.9l14.9,8.7
		L57,36.6z"/>
	<circle cx="51.2" cy="84.2" r="4.7"/>
	<path d="M68.3,79.5c-2.6,0-4.7,2.1-4.7,4.7l0,0c0,2.6,2.1,4.7,4.7,4.7s4.7-2.1,4.7-4.7l0,0C72.9,81.6,70.8,79.5,68.3,79.5z"/>
	<path d="M85.3,79.5c-2.6,0-4.7,2.1-4.7,4.7l0,0c0,2.6,2.1,4.7,4.7,4.7s4.7-2.1,4.7-4.7l0,0C90,81.6,87.9,79.5,85.3,79.5z"/>
</g>
</svg>
