<svg xmlns="http://www.w3.org/2000/svg" viewBox="0 0 100 97.09"><rect x="9.97" y="27.93" width="37.56" height="13.56" rx="6.78" ry="6.78" transform="translate(28.73 -11.82) rotate(39.6)" style="fill:#fbbc05"/><rect x="30.49" y="10.76" width="33.02" height="13.24" rx="6.62" ry="6.62" transform="translate(47.41 -34.18) rotate(70.18)" style="fill:#34a753"/><rect x="-0.1" y="49.68" width="32.36" height="13.24" rx="6.62" ry="6.62" transform="translate(8.37 -3.2) rotate(8.38)" style="fill:#eb4335"/><path d="M70.72,48.39a148.33,148.33,0,0,0,23.91-1.52s6.16-.92,5.29-7-7-5.28-7-5.28a114.51,114.51,0,0,1-20.79,2s.81-9.05.85-9.52.27-5.38-5.64-5.66c-5.67-.27-6.1,5.2-6.1,5.2A238.34,238.34,0,0,1,57,58.68q-.56,2.64-1.76,7.11l-2.73-.57q-12-2.53-20.18,2t-10,12.68A12.16,12.16,0,0,0,24.43,90.3a17,17,0,0,0,10.14,6.4Q45.23,98.94,54,91.25a36.07,36.07,0,0,0,8-10.6q3.49,1.62,5.88,2.93A128.33,128.33,0,0,1,88,97.09s4.85,3.77,8.64-.85-.9-8.64-.9-8.64A126,126,0,0,0,66.32,69.72q1.66-5.79,2.25-8.61Q69.36,56.56,70.72,48.39ZM46.55,82q-5.27,5.57-9.87,4.6-4.09-.86-3.34-4.44,1-4.6,6.89-5.67A26.14,26.14,0,0,1,50,77l.43.09A24.46,24.46,0,0,1,46.55,82Z" transform="translate(0 -1.46)" style="fill:#4285f4"/></svg>