<svg version="1.1" xmlns="http://www.w3.org/2000/svg" viewBox="0 0 50 50" fill="#ffffff">
<path d="M24.3,40.9c0.2,0.2,0.5,0.3,0.7,0.3h0c0.3,0,0.6-0.1,0.7-0.3l13.2-14.8c1.3-1.6,2.1-3.7,2.1-5.7
	c0-5.1-4.2-9.2-9.3-9.2c-2.5,0-4.9,1-6.7,2.7c-1.7-1.7-4.1-2.7-6.7-2.7c-5.2,0-9.3,4.1-9.3,9.2c0,2.1,0.7,4.1,2.1,5.8
	C11.2,26.3,21.2,37.5,24.3,40.9z M18.3,13.3c2.3,0,4.5,1,5.9,2.8c0.4,0.5,1.2,0.5,1.6,0c1.4-1.8,3.5-2.8,5.9-2.8
	c4.1,0,7.3,3.2,7.3,7.2c0,1.6-0.6,3.2-1.6,4.4L25,38.8c-4.6-5.1-12.2-13.6-12.4-13.9c-1.1-1.3-1.6-2.8-1.6-4.5
	C11,16.5,14.3,13.3,18.3,13.3z"/>
</svg>
