<svg version="1.1" xmlns="http://www.w3.org/2000/svg" viewBox="0 0 50 50" fill="#999999">
<path class="st0" d="M17.1,29l-2.3,9.8c-0.1,0.4,0.1,0.8,0.4,1c0.3,0.2,0.8,0.3,1.1,0.1l8.8-5.2l8.8,5.2c0.2,0.1,0.3,0.1,0.5,0.1
	c0.2,0,0.4-0.1,0.6-0.2c0.3-0.2,0.5-0.6,0.4-1L32.9,29l7.7-6.6c0.3-0.3,0.4-0.7,0.3-1.1c-0.1-0.4-0.5-0.7-0.9-0.7l-10.2-0.8l-4-9.3
	C25.8,10.2,25.4,10,25,10s-0.8,0.2-0.9,0.6l-4,9.3L9.9,20.7c-0.4,0-0.7,0.3-0.9,0.7c-0.1,0.4,0,0.8,0.3,1.1L17.1,29z M20.9,21.8
	c0.4,0,0.7-0.3,0.8-0.6l3.3-7.7l3.3,7.7c0.1,0.3,0.5,0.6,0.8,0.6l8.4,0.7l-6.4,5.4c-0.3,0.2-0.4,0.6-0.3,1l1.9,8.1l-7.2-4.3
	c-0.3-0.2-0.7-0.2-1,0l-7.2,4.3l1.9-8.1c0.1-0.4,0-0.8-0.3-1l-6.4-5.4L20.9,21.8z"/>
</svg>
