<svg version="1.1" xmlns="http://www.w3.org/2000/svg" viewBox="0 0 50 50" fill="#999999">
<path d="M29.6,29c4.1-2.3,5.9-7.5,3.9-11.9c-1.5-3.3-4.8-5.5-8.5-5.5c-1.3,0-2.6,0.3-3.8,0.8c-4.7,2.1-6.8,7.6-4.7,12.3
	c0.8,1.8,2.2,3.3,3.9,4.3c-5.6,1.2-9.4,4.5-9.4,8.4c0.1,0.6,0.5,1,1.1,1l0.1,0c0.5-0.1,0.9-0.5,1-1c0-3.6,5.4-6.6,11.8-6.6
	s11.8,3,11.8,6.6c0.1,0.6,0.5,1,1.1,1l0.1,0c0.5-0.1,0.9-0.5,1-1C39,33.5,35.3,30.2,29.6,29z M17.9,20.9c0-1.9,0.7-3.7,2.1-5
	s3.1-2.1,5-2.1l0-0.3l0,0v0.3c3.9,0,7.1,3.2,7.1,7.1c0,1.9-0.7,3.7-2.1,5c-1.3,1.3-3.1,2.1-5,2.1C21.1,28,17.9,24.8,17.9,20.9z"/>
</svg>
