<?xml version="1.0" encoding="utf-8"?>
<!-- Generator: Adobe Illustrator 19.2.1, SVG Export Plug-In . SVG Version: 6.00 Build 0)  -->
<!DOCTYPE svg PUBLIC "-//W3C//DTD SVG 1.1//EN" "http://www.w3.org/Graphics/SVG/1.1/DTD/svg11.dtd">
<svg version="1.1" id="图层_1" xmlns="http://www.w3.org/2000/svg" xmlns:xlink="http://www.w3.org/1999/xlink" x="0px" y="0px"
	 viewBox="0 0 50 50" style="enable-background:new 0 0 50 50;" xml:space="preserve">
<style type="text/css">
	.st0{fill:#999999;}
</style>
<path class="st0" d="M38.5,18.7h-7.7c0.9-1,1.5-2.3,1.5-3.4c0-0.9-0.3-1.5-0.9-2.1c-0.6-0.5-1.2-0.8-2.1-0.8c-1.2,0-2.6,0.6-3.6,1.6
	c-0.3,0.3-0.6,0.6-0.8,0.9c-0.2-0.3-0.5-0.7-0.8-0.9c-1-1-2.4-1.6-3.6-1.6c-0.9,0-1.5,0.3-2.1,0.8c-0.6,0.6-0.9,1.2-0.9,2.1
	c0,1.1,0.6,2.4,1.5,3.4h-7.7c-0.5,0-0.9,0.4-0.9,0.9v6.3c0,0.5,0.4,0.9,0.9,0.9H13v10c0,0.5,0.4,0.9,0.9,0.9h22.3
	c0.5,0,0.9-0.4,0.9-0.9v-9.9h1.4c0.5,0,0.9-0.4,0.9-0.9v-6.3C39.4,19.2,39,18.7,38.5,18.7z M21.2,25v-4.5h7.6V25
	C28.8,25,21.2,25,21.2,25z M28.8,26.8v9h-7.6v-9H28.8z M29.4,14.4c0.3,0,0.6,0.1,0.9,0.3c0.2,0.2,0.3,0.5,0.3,0.8
	c0,0.8-0.5,1.6-1.1,2.3s-1.6,1.1-2.4,1.1c-0.3,0-0.6-0.1-0.9-0.3c-0.2-0.2-0.3-0.5-0.3-0.8c0-0.8,0.5-1.6,1.1-2.3
	C27.8,14.7,28.6,14.4,29.4,14.4z M19.8,14.6c0.2-0.2,0.6-0.3,0.9-0.3c0.8,0,1.6,0.5,2.4,1.1c0.7,0.7,1.1,1.5,1.1,2.3
	c0,0.4-0.1,0.6-0.3,0.8c-0.2,0.2-0.6,0.3-0.9,0.3c-0.8,0-1.6-0.5-2.4-1.1c-0.7-0.7-1.1-1.5-1.1-2.3C19.5,15,19.6,14.7,19.8,14.6z
	 M12.5,20.5h7V25h-5.6h-1.4C12.5,25,12.5,20.5,12.5,20.5z M14.8,26.8h4.7v9h-4.7C14.8,35.8,14.8,26.8,14.8,26.8z M35.3,35.8h-4.7v-9
	h4.7V35.8z M37.6,25h-1.4h-5.6v-4.5h7V25L37.6,25z"/>
</svg>
