<svg viewBox="0 0 1024 1024" version="1.1" xmlns="http://www.w3.org/2000/svg"><title>天秤座 (9/23 - 10/23) Libra</title><path d="M113.664 743.424l796.672 0 0 148.48-796.672 0 0-148.48zM578.56 622.592l0-91.136q32.768-18.432 52.736-50.688t19.968-71.168q0-28.672-10.752-53.76t-29.696-43.52-44.544-29.184-54.272-10.752q-29.696 0-54.784 10.752t-44.544 29.184-30.208 43.52-10.752 53.76q0 38.912 19.456 70.656t51.2 49.152l0 93.184 0 57.344-328.704 0 0-149.504 118.784 0q-13.312-27.648-20.48-57.856t-7.168-62.976q0-59.392 24.064-112.64t65.536-92.16 97.792-61.952 119.808-23.04 119.808 23.04 97.792 61.952 65.536 92.16 24.064 112.64q0 32.768-7.168 62.976t-20.48 57.856l118.784 0 0 149.504-331.776 0 0-57.344z" /></svg>