<svg version="1.1" xmlns="http://www.w3.org/2000/svg" xmlns:xlink="http://www.w3.org/1999/xlink">
	<!-- <symbol viewBox="0 0 100 100" id="icon-*">
		<title></title>
	</symbol> -->
	<symbol viewBox="0 0 100 100" id="icon-yo">
		<title>直角LOGO</title>
		<path d="M36.9,47L22.1,34.8c-2.3-1.9-2.6-5.3-0.7-7.6l0,0c1.9-2.3,5.3-2.6,7.6-0.7l14.8,12.2c2.3,1.9,2.6,5.3,0.7,7.6 l0,0C42.6,48.6,39.2,48.9,36.9,47z" style="fill:#FBBC05;"/>
		<path d="M45.2,32.1l-5.4-14.9c-1-2.7,0.4-5.8,3.2-6.8l0,0c2.7-1,5.8,0.4,6.8,3.2l5.4,14.9c1,2.7-0.4,5.8-3.2,6.8l0,0 C49.2,36.3,46.2,34.9,45.2,32.1z" style="fill:#34A753;"/>
		<path d="M29.6,60.3l-15.1-2.2c-2.9-0.4-4.9-3.1-4.5-6l0,0c0.4-2.9,3.1-4.9,6-4.5l15.1,2.2c2.9,0.4,4.9,3.1,4.5,6v0 C35.2,58.7,32.5,60.7,29.6,60.3z" style="fill:#EB4335;"/>
		<path d="M88.3,36.9l1.3,9.9c-8.6,1.3-16.1,1.9-22.4,1.7c-0.7,4.3-1.3,7.7-1.7,10.2c-0.3,1.5-0.9,3.8-1.8,6.9 C72.9,69.4,81.7,74.9,90,82l-6,7.8c-5.7-5-12-9.4-19-13.2c-1.3-0.7-2.8-1.5-4.7-2.3c-1.8,3.5-4,6.3-6.4,8.5 c-4.6,4.1-9.8,5.5-15.5,4.3c-3.3-0.7-6-2.4-8.1-5.1c-1.8-2.3-2.3-5.1-1.7-8.3c0.9-4.4,3.6-7.8,8-10.1c4.3-2.4,9.7-2.9,16.1-1.6 l2.2,0.5c0.6-2.4,1.1-4.3,1.4-5.7c1.8-8.4,3-17.9,3.6-28.6l9.4,0.4l-0.9,10.6C73.7,39.2,80.4,38.4,88.3,36.9z M51.1,71.4l-0.3-0.1 c-3-0.6-5.6-0.7-7.8-0.4c-3.2,0.6-5,2.1-5.5,4.5c-0.4,1.9,0.5,3.1,2.7,3.5c2.4,0.5,5.1-0.7,7.9-3.7C49.2,74.2,50.2,72.9,51.1,71.4z" style="fill:#4285F4;"/>
	</symbol>
	<symbol viewBox="0 0 100 100" id="icon-logo">
		<title>圆角LOGO</title>
		<path d="M36.9,48.1L22.1,35.8c-2.3-1.9-2.6-5.3-0.7-7.6l0,0c1.9-2.3,5.3-2.6,7.6-0.7l14.8,12.2c2.3,1.9,2.6,5.3,0.7,7.6l0,0C42.7,49.6,39.2,50,36.9,48.1z" style="fill:#FBBC05;"/>
		<path d="M45.3,33.1l-5.4-14.9c-1-2.7,0.4-5.8,3.2-6.8l0,0c2.7-1,5.8,0.4,6.8,3.2l5.4,14.9c1,2.7-0.4,5.8-3.2,6.8l0,0C49.3,37.3,46.3,35.9,45.3,33.1z" style="fill:#34A753;"/>
		<path d="M29.7,61.4l-15.1-2.2c-2.9-0.4-4.9-3.1-4.5-6l0,0c0.4-2.9,3.1-4.9,6-4.5l15.1,2.2c2.9,0.4,4.9,3.1,4.5,6v0C35.2,59.8,32.5,61.8,29.7,61.4z" style="fill:#EB4335;"/>
		<path d="M66.6,48.7c5.5,0.2,11.9-0.2,19.1-1.2c0,0,4.9-0.7,4.2-5.6c-0.7-4.9-5.6-4.2-5.6-4.2c-6.5,1.1-12,1.7-16.6,1.6c0,0,0.7-7.2,0.7-7.6c0-0.4,0.2-4.3-4.5-4.5c-4.5-0.2-4.9,4.2-4.9,4.2c-0.7,9.5-1.8,18-3.4,25.7c-0.3,1.4-0.8,3.3-1.4,5.7L52,62.2c-6.4-1.3-11.8-0.8-16.1,1.6c-4.4,2.4-7,5.7-8,10.1c-0.7,3.2-0.1,6,1.7,8.3c2.1,2.7,4.8,4.4,8.1,5.1c5.7,1.2,10.9-0.3,15.5-4.4c2.4-2.1,4.6-5,6.4-8.5c1.9,0.9,3.4,1.6,4.7,2.3c5.8,3.2,11.2,6.8,16.1,10.8c0,0,3.9,3,6.9-0.7c3-3.7-0.7-6.9-0.7-6.9c-7.5-6-15.4-10.8-23.6-14.3c0.9-3.1,1.5-5.4,1.8-6.9C65.3,56.5,65.8,53.1,66.6,48.7z M47.2,75.6c-2.8,3-5.4,4.2-7.9,3.7c-2.2-0.5-3.1-1.6-2.7-3.6c0.5-2.5,2.4-4,5.5-4.5c2.2-0.4,4.8-0.3,7.8,0.4l0.3,0.1C49.5,73.1,48.4,74.5,47.2,75.6z" style="fill:#4285F4;"/>
	</symbol>
	<symbol viewBox="0 0 100 100" id="icon-picture">
		<title>图片</title>
		<path d="M36,28.9c-4.5,0-8.1,3.6-8.1,8.1s3.6,8.1,8.1,8.1s8.1-3.6,8.1-8.1S40.4,28.9,36,28.9z M36,40.1c-1.7,0-3.1-1.4-3.1-3.1S34.3,34,36,34S39,35.3,39,37C39,38.7,37.6,40.1,36,40.1z"/>
		<path d="M78.7,18.9H21.3C15,18.9,10,24,10,30.2v39c0,6.2,5,11.2,11.3,11.3h32.6c1.9,0,3.4-1.5,3.4-3.4c0-1.9-1.5-3.4-3.4-3.4H21.3c-2.4,0-4.4-1.9-4.5-4.3l15-12.7l11.3,10.1c1.3,1.1,3.2,1.1,4.5,0l17.5-16.2l18.2,16.9v1.7c0,2.5-2,4.5-4.5,4.5h-1.1c-1.9,0-3.4,1.5-3.4,3.4c0,1.9,1.5,3.4,3.4,3.4h1.1c6.2,0,11.2-5,11.2-11.2v-39C90,24,85,18.9,78.7,18.9z M83.2,58.5L67.3,43.7c-1.3-1.2-3.2-1.2-4.5,0L45.2,59.9L34,49.9c-1.2-1.1-3.1-1.1-4.3-0.1L16.7,60.7V30.2c0-2.5,2-4.5,4.5-4.5h57.5c2.5,0,4.5,2,4.5,4.5V58.5z"/>
		<circle cx="65.9" cy="77.1" r="4"/>
	</symbol>
	<symbol viewBox="0 0 100 100" id="icon-pen">
		<title>笔</title>
		<path d="M69.5,24.5c-0.2-0.2-0.4-0.3-0.6-0.5L47.4,11.4c-1.8-1.1-4.2-0.5-5.2,1.4L10.7,66.3l0,0c-0.6,0.9-0.7,2-0.5,3l4.3,16.8c0.4,1.7,1.9,2.8,3.6,2.9c0.3,0.1,0.6,0.1,0.9,0.1s0.7,0,1-0.1l16.3-4.2c1.1-0.3,2-1,2.5-2l31.5-53.5C71.2,27.8,70.9,25.7,69.5,24.5z M32.8,77.7l-11.8,3L18,69l20.3-34.5l14.8,8.7L32.8,77.7z M57,36.6l-14.9-8.7l4.7-7.9l14.9,8.7L57,36.6z"/>
		<circle cx="51.2" cy="84.2" r="4.7"/>
		<path d="M68.3,79.5c-2.6,0-4.7,2.1-4.7,4.7l0,0c0,2.6,2.1,4.7,4.7,4.7s4.7-2.1,4.7-4.7l0,0C72.9,81.6,70.8,79.5,68.3,79.5z"/>
		<path d="M85.3,79.5c-2.6,0-4.7,2.1-4.7,4.7l0,0c0,2.6,2.1,4.7,4.7,4.7s4.7-2.1,4.7-4.7l0,0C90,81.6,87.9,79.5,85.3,79.5z"/>
	</symbol>
	<symbol viewBox="0 0 100 100" id="icon-magnifier">
		<title>放大镜</title>
		<path d="M87.5,83L87.5,83L71.7,67.3c7.9-9,10.6-21.4,7.1-32.8c-0.7-2.2-2.9-3.4-5.1-2.7c-2.2,0.7-3.4,2.9-2.7,5.1c4.2,13.9-3.6,28.6-17.5,32.9c-13.9,4.2-28.6-3.6-32.9-17.5c-4.2-13.9,3.6-28.6,17.5-32.9c4.9-1.5,10.2-1.5,15.1-0.1c2.2,0.6,4.4-0.6,5.1-2.7c0.6-2.2-0.6-4.4-2.7-5.1c-18.3-5.4-37.5,5-42.9,23.3s5,37.5,23.3,42.9c10.1,3,21.1,1.2,29.7-4.9l16.1,16.1c1.6,1.6,4.2,1.6,5.8,0S89.1,84.6,87.5,83z"/>
		<ellipse transform="matrix(0.7071 -0.7071 0.7071 0.7071 3.5645 54.1801)" cx="67.2" cy="22.8" rx="4.4" ry="4.4"/>
	</symbol>
	<symbol viewBox="0 0 100 100" id="icon-classify">
		<title>分类</title>
		<path d="M19,44.5h17.7c4.6,0,8.4-3.8,8.4-8.4V18.4c0-4.6-3.8-8.4-8.4-8.4H19c-4.6,0-8.4,3.8-8.4,8.4v17.7C10.6,40.7,14.3,44.4,19,44.5z M17.8,22.1c0-2.7,2.2-4.9,4.9-4.9h10.3c2.7,0,4.9,2.2,4.9,4.9v10.3c0,2.7-2.2,4.9-4.9,4.9H22.7c-2.7,0-4.9-2.2-4.9-4.9V22.1z"/>
		<path d="M27.8,54.1c-9.7,0-17.5,7.8-17.5,17.5s7.8,17.5,17.5,17.5c9.7,0,17.5-7.8,17.5-17.5c0,0,0,0,0,0C45.3,62,37.4,54.1,27.8,54.1z M27.8,81.6C27.8,81.6,27.8,81.6,27.8,81.6L27.8,81.6c-5.5,0-10-4.5-10-10s4.5-10,10-10s10,4.5,10,10C37.8,77.1,33.3,81.6,27.8,81.6z"/>
		<path d="M89.2,37.9L89.2,37.9l-14.4-25c-1-1.8-3.3-2.4-5.1-1.4c-0.6,0.3-1,0.8-1.4,1.4l-14.4,25c-1,1.8-0.4,4.1,1.4,5.1c0.6,0.3,1.2,0.5,1.8,0.5H86c2.1,0,3.7-1.7,3.7-3.8C89.7,39,89.5,38.4,89.2,37.9z M63.6,36l8-13.8l8,13.8H63.6z"/>
		<ellipse transform="matrix(0.7071 -0.7071 0.7071 0.7071 -19.4873 74.1185)" cx="79.7" cy="60.6" rx="3.7" ry="3.7"/>
		<path d="M83.7,80.2c1.8-2.8,2.7-6.1,2.7-9.4c0-2-1.7-3.7-3.7-3.7h-0.1c-2.1,0-3.7,1.7-3.7,3.8c0,0,0,0,0,0c0.1,5.3-4.1,9.7-9.4,9.8c-5.3,0.1-9.7-4.1-9.8-9.4c-0.1-5.3,4.1-9.7,9.4-9.8c0.2,0,0.4,0,0.6,0c2.1,0.1,3.8-1.6,3.9-3.6s-1.6-3.8-3.6-3.9c-9.4-0.4-17.4,6.9-17.8,16.4c-0.4,9.4,6.9,17.4,16.4,17.8c3.5,0.1,7-0.8,10-2.7l3.7,3.6c1.2,1.2,3.2,1.2,4.4,0l0.9-0.9c1.2-1.2,1.2-3.2,0-4.4L83.7,80.2z"/>
	</symbol>
	<symbol viewBox="0 0 100 100" id="icon-more">
		<title>更多</title>
		<circle cx="85.3" cy="20.7" r="4.7"/>
		<path d="M14.6,25.3h56.8c2.5,0,4.6-2.1,4.6-4.6s-2.1-4.6-4.6-4.6H14.6c-2.5,0-4.6,2.1-4.6,4.6S12.1,25.3,14.6,25.3z"/>
		<path d="M85.4,45.5H14.6c-2.5,0-4.6,2.1-4.6,4.6s2.1,4.6,4.6,4.6h70.8c2.5,0,4.6-2.1,4.6-4.6S87.9,45.5,85.4,45.5z"/>
		<path d="M85.4,74.8H14.6c-2.5,0-4.6,2.1-4.6,4.6s2.1,4.6,4.6,4.6h70.8c2.5,0,4.6-2.1,4.6-4.6S87.9,74.8,85.4,74.8z"/>
	</symbol>
	<symbol viewBox="0 0 100 100" id="icon-shoppingcart">
		<title>购物车</title>
		<circle cx="30.3" cy="81.8" r="5.9"/>
		<circle cx="77.9" cy="81.8" r="5.9"/>
		<path d="M89.9,39.6c-0.8-7.3-6.6-13.1-13.9-13.9H28.6l-2.1-6c-1.7-5.5-4.4-7.3-8.5-7.4h-4c-2.2,0-4,1.8-4,4s1.8,4,4,4h4c0.3,0.1,0.5,0.3,0.6,0.6l2.6,9.9l0.1,0.3c0.5,1.6,2,2.7,3.8,2.7h49.5H75c4.1,0.3,7.3,3.9,7,8c-0.3,3.7-3.2,6.7-7,7h-0.3H30.5c-2,0.3-3.5,1.9-3.5,3.9c0,0.1,0,0.3,0,0.4L30.3,66c0.7,4.2,4.2,7.3,8.5,7.3h39.4c2.2,0,4-1.8,4-4s-1.8-4-4-4H38.8c-0.3-0.1-0.5-0.3-0.6-0.5v-0.1l-1.9-7.9h38.8l1-0.1C84.6,55.9,90.8,48.2,89.9,39.6z"/>
	</symbol>
	<symbol viewBox="0 0 100 100" id="icon-list">
		<title>列表模式</title>
		<path d="M18.6,44.9h17.5c4.6,0,8.3-3.7,8.3-8.3V19.1c0-4.6-3.7-8.3-8.3-8.3H18.6c-4.6,0-8.3,3.7-8.3,8.3v17.5C10.3,41.2,14,44.9,18.6,44.9z M17.5,22.8c0-2.7,2.1-4.8,4.7-4.8h10.2c2.7,0,4.8,2.2,4.8,4.8V33c0,2.7-2.2,4.8-4.8,4.8H22.3c-2.7,0-4.8-2.2-4.8-4.8V22.8z"/>
		<path d="M27.4,54.5c-9.6,0-17.3,7.8-17.4,17.3c0,9.6,7.8,17.3,17.3,17.4c9.6,0,17.3-7.8,17.4-17.3C44.7,62.3,36.9,54.6,27.4,54.5z M27.4,81.8c-5.5,0-9.9-4.5-9.9-9.9c0-5.5,4.4-9.9,9.9-9.9s9.9,4.4,9.9,9.9C37.2,77.3,32.8,81.8,27.4,81.8z"/>
		<path d="M85.5,58.9H58.2c-2.3,0-4.2,1.9-4.2,4.2c0,2.3,1.9,4.2,4.2,4.2h27.3c2.3,0,4.2-1.9,4.2-4.2C89.7,60.8,87.9,58.9,85.5,58.9z"/>
		<path d="M85.5,77.5H58.2c-2.3,0-4.2,1.9-4.2,4.2s1.9,4.2,4.2,4.2h27.3c2.3,0,4.2-1.9,4.2-4.2S87.9,77.5,85.5,77.5z"/>
		<path d="M58.2,22.8h13.4c2.3,0,4.2-1.9,4.2-4.2c0-2.3-1.9-4.2-4.2-4.2H58.2c-2.3,0-4.2,1.9-4.2,4.2C53.9,20.9,55.8,22.8,58.2,22.8z"/>
		<path d="M85.5,32.9H58.2c-2.3,0-4.2,1.9-4.2,4.2c0,2.3,1.9,4.2,4.2,4.2h27.3c2.3,0,4.2-1.9,4.2-4.2C89.8,34.8,87.9,32.9,85.5,32.9z"/>
		<circle cx="85.5" cy="18.6" r="4.5"/>
	</symbol>
	<symbol viewBox="0 0 100 100" id="icon-filter">
		<title>漏斗</title>
		<path d="M38.3,66.7c-2.3,0-4.2,1.9-4.2,4.2c0,2.3,1.9,4.2,4.2,4.2s4.2-1.9,4.2-4.2C42.5,68.6,40.6,66.7,38.3,66.7z"/>
		<path d="M87.6,12.4c-1.4-1.5-3.4-2.3-5.4-2.4H17.8c-4.3,0.1-7.7,3.6-7.6,7.9c0,1.9,0.8,3.7,2.1,5.1l22.1,22.7V59c0.1,2.2,1.9,3.9,4.1,3.9c2.1,0,3.8-1.8,3.7-3.9V43.4c0-0.8-0.1-1-0.4-1.4L18.1,18.1C18,18,18,17.8,18,17.8h64.1c-0.1,0-0.1,0.2-0.2,0.3L57.9,42c-0.4,0.4-0.8,0.9-0.8,1.5v0.6c0,3.7,0,22.5,0.1,38.2C57,82.2,57,82.1,56.9,82l-4.7-4.9c-1.3-1.6-3.8-1.9-5.4-0.5c-1.6,1.3-1.9,3.8-0.5,5.4c0.1,0.1,0.2,0.2,0.3,0.3l5.5,5.4c0.1,0.1,0.2,0.2,0.3,0.2c1.3,1.3,3.2,2.1,5,2.1c4.1,0,7.5-3.4,7.5-7.5v-0.1V45.8l22.5-22.3c0.1-0.1,0.2-0.2,0.3-0.3c1.4-1.4,2.1-3.3,2.1-5.3C89.8,15.8,89,13.8,87.6,12.4z"/>
	</symbol>
	<symbol viewBox="0 0 100 100" id="icon-message">
		<title>消息</title>
		<path d="M86.6,33.9L86.6,33.9c-0.9-2-3.2-2.9-5.2-2c-2,0.9-2.9,3.2-2,5.2c4.5,10.2,3.4,22-2.9,31.1c-0.4,0.7-0.7,1.4-0.7,2.2v11.8L50,82.1c-17.7,0-32.1-14.4-32.1-32.1S32.3,17.9,50,17.9c4.3,0,8.5,0.9,12.5,2.5c2,0.8,4.3-0.1,5.2-2.1s-0.1-4.3-2.1-5.2c-20.4-8.6-43.8,1-52.4,21.3c-8.6,20.4,1,43.8,21.3,52.4C39.4,88.9,44.7,90,50,90c8.4,0,29.7,0,29.7,0c2.2,0,3.9-1.7,4-3.9V71.6C90.9,60.3,92,46.1,86.6,33.9z"/>
		<path d="M25.6,44.6c0,2.2,1.8,4,4,4H70c2.2,0,4-1.8,4-4s-1.8-4-4-4H29.6C27.4,40.6,25.6,42.4,25.6,44.6z"/>
		<path d="M36.6,55.5c-2.2,0-4,1.8-4,4c0,2.2,1.8,4,4,4H63c2.2,0,4-1.8,4-4c0-2.2-1.8-4-4-4H36.6z"/>
		<circle cx="75.3" cy="24.3" r="4.2"/>
	</symbol>
	<symbol viewBox="0 0 100 100" id="icon-face">
		<title>笑脸</title>
		<circle cx="37.4" cy="38.8" r="4.9"/>
		<circle cx="62.4" cy="38.8" r="4.9"/>
		<path d="M50,70.8c6.8,0,13-3.8,15.9-9.9c0.3-0.5,0.4-1.2,0.5-1.8c0-2.1-1.7-3.8-3.8-3.7c-1.4,0-2.7,0.8-3.3,2.1c-1.7,3.6-5.3,5.9-9.2,5.9c-3.9,0-7.4-2.2-9.1-5.7l-0.1-0.2c-1.1-1.8-3.4-2.3-5.2-1.2c-1.5,0.9-2.2,2.8-1.5,4.5C37.1,66.9,43.2,70.8,50,70.8z"/>
		<path d="M87.3,35.6c-0.8-1.9-3-2.7-4.9-1.9c-1.7,0.8-2.6,2.7-2,4.5c6.5,16.8-1.9,35.7-18.7,42.2C44.9,86.9,26,78.5,19.6,61.7C13.1,44.9,21.5,26,38.3,19.6c7.5-2.9,15.9-2.9,23.4,0c1.9,0.6,4-0.4,4.7-2.4c0.6-1.8-0.3-3.8-2-4.5c-20.6-7.9-43.8,2.4-51.7,23c-7.9,20.6,2.4,43.8,23,51.7c20.6,7.9,43.8-2.4,51.7-23C90.9,55.1,90.9,44.9,87.3,35.6z"/>
		<ellipse transform="matrix(0.7071 -0.7071 0.7071 0.7071 4.9775 60.6134)" cx="75.7" cy="24.3" rx="4.8" ry="4.8"/>
	</symbol>
	<symbol viewBox="0 0 100 100" id="icon-user">
		<title>用户</title>
		<path d="M79.9,82.8c-17.7-12.9-41.7-12.9-59.4,0c-1.8,1.2-2.3,3.7-1.1,5.5c1.2,1.8,3.7,2.3,5.5,1.1c0.1-0.1,0.2-0.1,0.2-0.2c15-10.9,35.2-10.9,50.2,0c1.8,1.2,4.2,0.7,5.5-1.1C81.8,86.4,81.5,84.1,79.9,82.8z"/>
		<path d="M48.7,70.2c8,0,15.7-3.2,21.3-8.9c7.5-7.5,10.5-18.5,7.9-28.8c-0.6-2.1-2.8-3.3-4.9-2.6c-2,0.6-3.2,2.6-2.7,4.6c1.9,7.6-0.3,15.7-5.8,21.3c-9,8.4-23.1,7.9-31.5-1.1c-8-8.6-8-21.9,0-30.4c4.2-4.2,9.9-6.5,15.8-6.5c1.8,0,3.7,0.2,5.5,0.7c2.1,0.6,4.3-0.6,4.9-2.6c0.6-2.1-0.6-4.3-2.6-4.9c-0.1,0-0.2-0.1-0.3-0.1c-2.4-0.6-4.9-0.9-7.4-0.9c-8,0-15.7,3.2-21.3,8.9c-11.7,11.8-11.7,30.8,0,42.6C33.1,67.1,40.8,70.2,48.7,70.2z"/>
		<path d="M67.2,25.9c2.4,0,4.3-1.9,4.3-4.3c0-2.4-1.9-4.3-4.3-4.3c-2.4,0-4.3,1.9-4.3,4.3c0,1.2,0.5,2.3,1.3,3.1C65,25.5,66.1,25.9,67.2,25.9z"/>
	</symbol>
	<symbol viewBox="0 0 100 100" id="icon-home">
		<title>屋子</title>
		<path d="M52.7,14.6c-1.5-1.4-3.8-1.4-5.3,0L11.2,49.3c-1.5,1.5-1.6,3.9-0.1,5.4s3.9,1.6,5.4,0.1l3.6-3.5v31.3c0,2.1,1.7,3.8,3.8,3.8h52.3c2.1,0,3.8-1.7,3.8-3.8V64.5c0-2.1-1.7-3.8-3.8-3.8s-3.8,1.7-3.8,3.8v14.4H27.7V44L50,22.7l24.9,23.8c1.5,1.5,4,1.4,5.4-0.1s1.4-4-0.1-5.4L52.7,14.6z"/>
		<circle cx="86.2" cy="52.1" r="3.8"/>
		<path d="M59.9,59.3c-0.1,0.1-0.1,0.1-0.2,0.2h0c0,0-3.6,4.6-9.2,4.6s-9.1-4.5-9.2-4.6c-1.1-1.5-3.2-1.7-4.7-0.6c-1.4,1.1-1.7,3.1-0.7,4.6c0.2,0.3,5.5,7.3,14.6,7.3s14.4-7,14.6-7.3c1.2-1.4,0.9-3.5-0.5-4.7C63.1,57.7,61,57.9,59.9,59.3z"/>
	</symbol>
	<symbol viewBox="0 0 100 100" id="icon-top">
		<title>上</title>
		<circle cx="50.1" cy="85.4" r="4.6"/>
		<path d="M87.7,46L53,11.3c-1.6-1.6-4.2-1.6-5.8,0L12.4,46c-1.7,1.5-1.8,4.1-0.3,5.8s4.1,1.8,5.8,0.3c0,0,0,0,0,0l32.2-32.2l22.8,22.8L51,38.8c-2.7-0.5-4.9,1.2-4.9,3.8V71c0,2.3,1.8,4.1,4.1,4.1s4.1-1.8,4.1-4.1V47.7L84.1,53c2.2,0.4,4.3-1.1,4.7-3.3c0,0,0.1-0.4,0.1-0.8C88.9,47.8,88.5,46.8,87.7,46z"/>
	</symbol>
	<symbol viewBox="0 0 100 100" id="icon-left">
		<title>左</title>
		<circle cx="85.2" cy="74" r="4.8"/>
		<path d="M68.9,69.8H14.2c-2.3,0-4.2,1.9-4.2,4.2s1.9,4.2,4.2,4.2h54.7c2.3,0,4.2-1.9,4.2-4.2S71.2,69.8,68.9,69.8z"/>
		<path d="M14.3,59C14.3,59,14.3,59,14.3,59c0.1,0,0.1,0,0.1,0h71.4c2.3,0,4.2-1.9,4.2-4.2s-1.9-4.2-4.2-4.2H25.2l24.1-21.9c1.7-1.6,1.9-4.2,0.3-6c-1.5-1.8-4.2-1.9-6-0.4L11.4,51.8l0,0c-0.8,0.8-1.3,1.9-1.3,3.1C10.2,57.2,12,58.9,14.3,59z"/>
	</symbol>
	<symbol viewBox="0 0 100 100" id="icon-star-full">
		<title>实星</title>
		<path d="M87.6,38.8l-24.3-3.6L52.5,13c-0.3-0.6-0.7-1-1.3-1.3c-1.4-0.7-3-0.1-3.7,1.3L36.7,35.2l-24.3,3.6c-0.6,0.1-1.1,0.4-1.6,0.8c-1.1,1.1-1.1,2.8,0,3.9l17.5,17.3l-4.1,24.5c-0.1,0.6,0,1.2,0.3,1.8c0.7,1.4,2.4,1.9,3.8,1.2L50,76.7l21.7,11.6c0.5,0.3,1.2,0.4,1.8,0.3c1.5-0.3,2.5-1.7,2.2-3.2l-4.1-24.5l17.6-17.3c0.4-0.4,0.7-1,0.8-1.6c0,0,0-0.1,0-0.1C90.2,40.4,89.1,39,87.6,38.8z"/>
	</symbol>
	<symbol viewBox="0 0 100 100" id="icon-star">
		<title>空星</title>
		<path d="M88.7,38.5c-1-1.4-2.5-2.3-4.2-2.5l-3.9-0.6c-2.2-0.3-4.2,1.2-4.5,3.3c-0.3,2.2,1.2,4.2,3.3,4.5l1,0.1L66.7,57c-0.9,0.9-1.3,2.2-1.1,3.5l3.2,19.2l-17-9.1c-1.2-0.6-2.5-0.6-3.7,0l-17,9l3.2-19.2c0.2-1.3-0.2-2.6-1.1-3.5L19.5,43.4l19-2.8c1.3-0.2,2.4-1,3-2.2L49.9,21l5.6,11.5c1,2,3.3,2.8,5.3,1.8c2-1,2.8-3.3,1.8-5.3l-6.9-14.2c-1.1-2.2-3.3-3.6-5.8-3.6c-2.5,0-4.7,1.4-5.8,3.6l-8.9,18.2l-19.8,3c-3.5,0.5-6,3.7-5.5,7.3c0.2,1.4,0.8,2.7,1.8,3.7l14.4,14.2l-3.4,20v0.1c-0.2,1.4,0,2.8,0.7,4c1.7,3.1,5.6,4.3,8.7,2.6L50,78.5l17.7,9.4c0.9,0.5,2,0.8,3,0.8c0.3,0,0.6,0,0.9-0.1h0.1c3.5-0.6,5.9-3.9,5.3-7.4l-3.4-20.1L88.1,47C90.4,44.7,90.6,41.1,88.7,38.5z"/>
		<circle cx="68.2" cy="37.6" r="4"/>
	</symbol>
	<symbol viewBox="0 0 100 100" id="icon-heart-full">
		<title>实心</title>
		<path d="M67.5,16.5c-6.9,0-13.3,6.9-17.5,12c-4.2-5.1-10.6-12-17.5-12C20.2,16.4,10.1,26.3,10,38.7c0,7.3,3.6,12.4,6.5,16.5C25,67.2,46.2,82,47.1,82.6c1.7,1.2,4,1.2,5.8,0C53.8,82,75,67.1,83.5,55.2C86.4,51.1,90,46,90,38.7C89.9,26.3,79.8,16.4,67.5,16.5z"/>
	</symbol>
	<symbol viewBox="0 0 100 100" id="icon-heart">
		<title>空心</title>
		<path d="M89.8,36.5c-0.3-2.2-2.2-3.7-4.4-3.4c-2.2,0.3-3.7,2.2-3.4,4.4c0,0.1,0,0.2,0,0.3c0.1,0.8,0.2,1.5,0.2,2.3c0,5.2-2.7,9-5.1,12.3c-7.3,10-26.4,23.1-26.6,23.3c-0.2,0.2-0.6,0.2-0.8,0C43,71,28.8,60.3,23,52.3c-2.4-3.3-5.1-7.1-5.1-12.3c0-8.6,7.3-15.6,16.4-15.6c5.1,0,10.8,6.9,12.8,9.2c0.7,0.9,1.8,1.4,3,1.4c1.2,0,2.3-0.5,3-1.4c1.9-2.3,7.7-9.2,12.8-9.2c1,0,1.9,0.1,2.9,0.2c2.1,0.4,4.2-1.1,4.6-3.2c0.4-2.1-1.1-4.2-3.2-4.6c-1.4-0.2-2.8-0.4-4.2-0.4c-6.2,0-11.6,4.3-15.7,8.6c-4.2-4.3-9.6-8.6-15.8-8.6C20.8,16.5,10,27,10,40c0,7.7,3.8,13,6.6,16.9c7.9,10.9,26.5,23.7,28.5,25.2c2.9,2,6.7,2,9.6,0c0.8-0.6,20.5-14,28.5-25.2C86.2,53,90,47.7,90,40C90,38.8,89.9,37.6,89.8,36.5z"/>
		<circle cx="79" cy="27.2" r="4.2"/>
	</symbol>
	<symbol viewBox="0 0 1024 1024" id="icon-keyback">
		<title>数字键盘回退</title>
		<path d="M632.152521 521.761318l129.829927-128.749316c7.814989-7.764847 8.016581-20.717857 0.079818-28.587082-7.700379-7.641027-20.842701-7.831362-28.829606 0.086981L603.422176 493.260194 473.614761 364.510878c-7.828292-7.765871-20.900006-7.959276-28.822442-0.086981-7.721869 7.640004-7.893784 20.669762 0.079818 28.587082l129.821741 128.749316-129.821741 128.750339c-7.822153 7.765871-8.023744 20.717857-0.079818 28.590152 7.700379 7.640004 20.835538 7.829316 28.822442-0.090051l129.807415-128.748293 129.808438 128.748293c7.835456 7.767917 20.900006 7.959276 28.829605 0.090051 7.713682-7.641027 7.893784-20.670785-0.079818-28.590152L632.152521 521.761318zM75.170027 540.719088c-15.936971-15.863293-15.714913-41.808198 0-57.44227l281.867645-280.604886c7.951089-7.913227 23.636327-14.323217 34.668591-14.323216h446.905446c67.428715 0 122.086569 54.073546 122.08657 121.749901v403.798673c0 67.242474-54.386678 121.752971-122.08657 121.752971H391.706263c-11.189853 0-26.495444-6.178723-34.668591-14.326287L75.170027 540.719088z"/>
	</symbol>
	<symbol viewBox="0 0 1024 1024" id="icon-github">
		<title>GitHub</title>
		<path d="M511.957333 21.333333C241.024 21.333333 21.333333 240.981333 21.333333 512c0 216.832 140.544 400.725333 335.573334 465.664 24.490667 4.394667 32.256-10.069333 32.256-23.082667 0-11.690667 0.256-44.245333 0-85.205333-136.448 29.610667-164.736-64.64-164.736-64.64-22.314667-56.704-54.4-71.765333-54.4-71.765333-44.586667-30.464 3.285333-29.824 3.285333-29.824 49.194667 3.413333 75.178667 50.517333 75.178667 50.517333 43.776 75.008 114.816 53.333333 142.762666 40.789333 4.522667-31.658667 17.152-53.376 31.189334-65.536-108.970667-12.458667-223.488-54.485333-223.488-242.602666 0-53.546667 19.114667-97.322667 50.517333-131.669334-5.034667-12.330667-21.930667-62.293333 4.778667-129.834666 0 0 41.258667-13.184 134.912 50.346666a469.802667 469.802667 0 0 1 122.88-16.554666c41.642667 0.213333 83.626667 5.632 122.88 16.554666 93.653333-63.488 134.784-50.346667 134.784-50.346666 26.752 67.541333 9.898667 117.504 4.864 129.834666 31.402667 34.346667 50.474667 78.122667 50.474666 131.669334 0 188.586667-114.730667 230.016-224.042666 242.090666 17.578667 15.232 33.578667 44.672 33.578666 90.453334v135.850666c0 13.141333 7.936 27.605333 32.853334 22.869334C862.250667 912.597333 1002.666667 728.746667 1002.666667 512 1002.666667 240.981333 783.018667 21.333333 511.957333 21.333333z"></path>
	</symbol>
	<symbol viewBox="0 0 1024 1024" id="icon-github-line">
		<title>GitHub</title>
		<path d="M682.215454 981.446137c-25.532318 0-42.553863-17.021545-42.553864-42.553864v-165.960067c4.255386-34.043091-8.510773-59.575409-29.787704-80.852341-12.766159-12.766159-17.021545-29.787704-8.510773-42.553864 4.255386-17.021545 21.276932-25.532318 34.043091-29.787704 123.406204-12.766159 238.301635-55.320023 238.301635-255.323181 0-46.80925-17.021545-93.6185-51.064636-131.916976-12.766159-12.766159-12.766159-29.787704-8.510772-42.553864 12.766159-34.043091 12.766159-68.086182 4.255386-102.129272-21.276932 4.255386-55.320023 17.021545-110.640045 55.320022-8.510773 8.510773-21.276932 8.510773-34.043091 4.255387-89.363113-25.532318-187.236999-25.532318-276.600112 0-12.766159 4.255386-25.532318 4.255386-38.298477-4.255387C307.741455 104.836549 269.442978 92.07039 248.166047 87.815004c-8.510773 34.043091-8.510773 68.086182 4.255386 102.129272 4.255386 17.021545 4.255386 34.043091-8.510773 42.553864-34.043091 38.298477-51.064636 85.107727-51.064636 131.916976 0 200.003158 114.895431 242.557022 238.301635 255.323181 17.021545 0 29.787704 12.766159 34.043091 29.787704 4.255386 17.021545 0 34.043091-8.510773 42.553864-21.276932 21.276932-29.787704 46.80925-29.787704 76.596954v165.960068c0 25.532318-17.021545 42.553863-42.553863 42.553863s-42.553863-17.021545-42.553864-42.553863v-72.341568c-127.66159 21.276932-182.981613-51.064636-221.28009-97.873886-17.021545-21.276932-29.787704-38.298477-46.80925-42.553864-21.276932-4.255386-38.298477-29.787704-29.787704-51.064636 4.255386-21.276932 29.787704-38.298477 51.064636-29.787704 42.553863 12.766159 68.086182 42.553863 93.6185 72.341568 34.043091 46.80925 63.830795 80.852341 153.193908 63.830795v-4.255386c0-25.532318 4.255386-55.320023 12.766159-76.596955-119.150818-25.532318-246.812408-102.129272-246.812408-327.664748 0-63.830795 21.276932-123.406204 59.575409-170.215454-17.021545-59.575409-12.766159-114.895431 12.766159-170.215454 4.255386-12.766159 12.766159-21.276932 25.532318-25.532318 17.021545-4.255386 72.341568-12.766159 187.236999 59.575409 93.6185-21.276932 191.492386-21.276932 280.855499 0 110.640045-72.341568 170.215454-63.830795 187.236999-59.575409 12.766159 4.255386 21.276932 12.766159 25.532319 25.532318 21.276932 55.320023 25.532318 110.640045 12.766159 165.960067 38.298477 46.80925 59.575409 106.384659 59.575408 170.215454 0 242.557022-144.683136 306.387817-246.812408 331.920135 8.510773 25.532318 12.766159 55.320023 12.766159 80.852341V938.892273c0 25.532318-17.021545 42.553863-42.553863 42.553864z"></path>
	</symbol>
</svg>