<svg version="1.1" xmlns="http://www.w3.org/2000/svg" xmlns:xlink="http://www.w3.org/1999/xlink">
	<symbol viewBox="0 0 1024 1024" id="icon-Capricorn">
		<title>摩羯座 12/22 - 1/19</title>
		<path d="M723.306228 503.293016q24.012071 0 48.984626 11.525794t44.662453 33.6169 32.176176 54.267281 12.486277 73.476938q0 43.221729-22.091106 79.239836t-57.14873 58.109213-78.279353 27.373761-86.443457-13.927001q-17.288691 39.379797-38.419314 76.838628t-49.945108 65.793076-65.793076 43.70197-85.002733 8.644346q-8.644346-0.960483-15.367726-2.401207t-11.525794-3.36169q-5.762897-1.920966-9.604829-3.841931l16.328209-138.309531q16.328209 1.920966 34.577383-2.881449t34.097141-12.486277 27.373761-17.288691 14.407243-18.249174q7.683863-21.130623 16.80845-50.42535t21.610864-61.951144q-13.44676-25.933037-23.53183-57.628971t-17.768933-71.075731q-3.841931-20.17014-6.243139-47.543901t-3.841931-55.227764-2.881449-54.747523-3.841931-48.024143-6.243139-33.136659-9.604829-10.08507q-11.525794-1.920966-19.689899 22.091106t-13.927001 60.030178-9.124587 75.397904-4.322173 67.2338l-128.704703 0q-1.920966-73.95718-4.322173-117.65915t-6.243139-70.59549-10.08507-43.70197-17.768933-36.97859q-4.802414-8.644346-13.927001-14.407243t-17.768933-8.644346q-10.565311-3.841931-22.091106-4.802414l0-129.665186q26.89352 0 49.464867 8.644346t41.300763 23.53183 33.6169 34.577383 26.413279 40.820521l4.802414-10.565311q5.762897-11.525794 15.367726-27.854003t24.492313-31.215693 35.057624-25.452796 47.06366-10.565311q35.537866 0 59.549937 19.209657t39.860039 51.385833 25.452796 74.437421 15.847967 88.364423 11.045553 93.166837 11.525794 89.324906q24.012071-21.130623 52.826557-33.6169t64.352351-12.486277zM719.464297 697.310553q4.802414-0.960483 9.604829-8.164104t6.243139-14.887484-3.36169-14.407243-20.17014-6.72338q-10.565311 1.920966-19.689899 12.966519t-18.729416 29.294727q19.209657 8.644346 46.103177 1.920966z" />
	</symbol>
	<symbol viewBox="0 0 1024 1024" id="icon-Aquarius">
		<title>水瓶座 1/20 - 2/18</title>
		<path d="M76.8 524.288l0-169.984 279.552-184.32 69.632 134.144 175.104-137.216 71.68 135.168 176.128-132.096 95.232 141.312-3.072 222.208-134.144-154.624-184.32 134.144-68.608-137.216-184.32 129.024-77.824-132.096zM76.8 907.264l0-168.96 279.552-184.32 69.632 134.144 175.104-137.216 71.68 135.168 176.128-132.096 95.232 140.288-3.072 223.232-134.144-155.648-184.32 135.168-68.608-137.216-184.32 129.024-77.824-133.12z" />
	</symbol>
	<symbol viewBox="0 0 1024 1024" id="icon-Pisces">
		<title>双鱼座 2/19 - 3/20</title>
		<path d="M564.224 473.088q10.24-114.688 54.272-208.896t112.64-157.696l167.936 0q-68.608 63.488-107.52 157.696t-47.104 208.896l134.144 0 0 151.552-131.072 0q11.264 105.472 50.688 192t103.936 144.896l-166.912 0q-64.512-58.368-109.056-144.896t-58.88-192l-109.568 0q-14.336 105.472-58.368 192t-109.568 144.896l-166.912 0q64.512-58.368 103.936-144.896t50.688-192l-142.336 0 0-151.552 146.432 0q-8.192-114.688-47.104-208.896t-107.52-157.696l166.912 0q68.608 63.488 113.152 157.696t53.76 208.896l103.424 0z" />
	</symbol>
	<symbol viewBox="0 0 1024 1024" id="icon-Aries">
		<title>白羊座 3/21 - 4/19</title>
		<path d="M331.776 507.904l-159.744 0q-48.128-37.888-72.704-90.624t-27.648-105.984 13.824-101.888 51.712-78.848 86.016-35.84 115.712 25.088q61.44 29.696 102.912 90.112t69.12 138.24q26.624-77.824 68.096-138.24t102.912-90.112q65.536-30.72 116.736-25.088t86.016 35.84 51.712 78.848 13.824 101.888-27.648 105.984-72.704 90.624l-160.768 0q13.312-23.552 24.576-43.008 9.216-17.408 17.92-32.256t10.752-19.968q3.072-7.168 11.264-30.208t11.776-45.056-2.56-33.28-32.768 6.144q-35.84 23.552-58.88 72.192t-37.376 104.96-20.992 111.104-10.752 91.648-7.168 77.312-5.12 73.216q-3.072 39.936-4.096 76.8l-9.216 0-131.072 0-9.216 0q-1.024-36.864-4.096-76.8-2.048-32.768-5.632-73.216t-7.68-77.312-10.752-91.648-20.992-111.104-37.376-104.96-58.88-72.192q-26.624-17.408-32.768-6.144t-2.56 33.28 11.776 45.056 11.264 30.208q2.048 5.12 10.752 19.968t17.92 32.256q11.264 19.456 24.576 43.008z" />
	</symbol>
	<symbol viewBox="0 0 1024 1024" id="icon-Taurus">
		<title>金牛座 4/20 - 5/20</title>
		<path d="M92.16 146.432q19.456-5.12 46.08-3.072 22.528 2.048 54.272 10.24t74.752 29.696q28.672 15.36 52.736 37.376t44.544 47.104 38.912 49.664 36.864 44.544 37.376 32.768 41.472 12.8 41.984-12.8 37.888-32.768 36.864-44.544 38.912-49.664 44.544-47.104 52.736-37.376q41.984-21.504 74.24-29.696t54.784-10.24q26.624-2.048 46.08 3.072l0 161.792q-21.504-1.024-40.96 2.048-17.408 2.048-36.864 7.168t-33.792 16.384q-11.264 8.192-26.624 26.112t-33.28 39.936-37.888 45.056-38.4 41.472q55.296 39.936 88.576 100.352t33.28 131.072q0 60.416-24.064 113.152t-65.536 91.648-97.792 61.952-119.808 23.04-119.808-23.04-97.792-61.952-65.536-91.648-24.064-113.152q0-73.728 34.816-135.168t93.184-100.352q-18.432-18.432-36.864-40.96t-36.352-44.032-32.768-38.4-25.088-25.088q-15.36-11.264-34.304-16.384t-36.352-7.168q-19.456-3.072-40.96-2.048l0-161.792zM374.784 716.8q0 28.672 10.752 53.76t29.696 44.032 44.544 29.696 54.272 10.752 54.272-10.752 45.056-29.696 30.208-44.032 10.752-53.76-10.752-53.76-30.208-43.52-45.056-29.184-54.272-10.752-54.272 10.752-44.544 29.184-29.696 43.52-10.752 53.76z" />
	</symbol>
	<symbol viewBox="0 0 1024 1024" id="icon-Gemini">
		<title>双子座 5/21 - 6/21</title>
		<path d="M143.36 817.152q63.488-19.456 126.976-29.696l0-424.96q-63.488-10.24-126.976-29.696l0-159.744q93.184 27.648 180.736 39.936t185.856 12.288q104.448 0 197.12-13.824t192-45.568l0 159.744q-34.816 11.264-69.12 19.968t-70.144 15.872l0 427.008q35.84 7.168 70.144 15.872t69.12 19.968l0 159.744q-99.328-31.744-192-45.568t-197.12-13.824q-98.304 0-185.856 12.288t-180.736 39.936l0-159.744zM509.952 766.976q13.312 0 34.816 0.512t33.792 0.512l0-386.048-68.608 0-59.392 0 0 386.048q11.264 0 30.208-0.512t29.184-0.512z" />
	</symbol>
	<symbol viewBox="0 0 1024 1024" id="icon-Cancer">
		<title>巨蟹座 6/22 - 7/22</title>
		<path d="M113.664 354.304q27.648-46.08 74.24-84.48t106.496-66.048 129.536-43.008 145.408-15.36q100.352 0 189.44 25.088t171.008 84.48l1.024 176.128q-55.296-41.984-116.736-72.192t-125.952-44.544-131.584-10.752-132.608 29.184q23.552 26.624 37.888 60.928t14.336 73.216q0 40.96-15.872 77.312t-42.496 62.976-62.976 42.496-77.312 15.872-77.312-15.872-62.976-42.496-42.496-62.976-15.872-77.312q0-63.488 34.816-112.64zM276.48 505.856q17.408 0 29.184-11.776t11.776-29.184-11.776-29.184-29.184-11.776-29.184 11.776-11.776 29.184 11.776 29.184 29.184 11.776zM751.616 592.896q-17.408 0-29.184 11.776t-11.776 29.184 11.776 29.184 29.184 11.776 29.184-11.776 11.776-29.184-11.776-29.184-29.184-11.776zM914.432 744.448q-27.648 46.08-74.24 84.48t-106.496 66.048-130.048 43.008-144.896 15.36q-100.352 0-189.44-25.088t-171.008-84.48l-1.024-176.128q55.296 41.984 116.736 72.192t125.952 44.544 131.072 10.752 133.12-29.184q-23.552-26.624-37.888-60.928t-14.336-73.216q0-40.96 15.872-77.312t42.496-62.976 62.976-42.496 77.312-15.872 77.312 15.872 62.976 42.496 42.496 62.976 15.872 77.312q0 31.744-9.216 60.416t-25.6 52.224z" />
	</symbol>
	<symbol viewBox="0 0 1024 1024" id="icon-Leo">
		<title>狮子座 7/23 - 8/22</title>
		<path d="M353.171846 681.553724q18.094347 0 30.157244-12.565519t12.062898-29.654624-12.062898-29.654624-30.157244-12.565519q-17.089105 0-29.152003 12.565519t-12.062898 29.654624 12.062898 29.654624 29.152003 12.565519zM151.118309 639.333581q0-41.214901 15.581243-77.403594t42.722763-63.832834 63.330213-43.728004 77.403594-16.083864q-3.015724-24.125796-3.015724-51.267315 2.010483-65.340696 26.638899-111.581804t62.827593-73.885249 85.948147-38.199176 95.497941-4.523587 90.974354 28.146761 72.880007 58.304006 41.214901 86.450767-3.518345 113.592287q-23.120554 94.492699-59.309247 181.948708t-73.382628 168.880569q-17.089105 38.199176-15.581243 56.796144t11.560277 23.623175 21.612692-1.005241 14.576001-18.094347l154.807188 3.015724q-1.005241 48.251591-21.612692 82.429801t-52.775178 53.780419-71.874766 25.131037-77.403594-3.015724-69.361662-30.659865-49.256833-58.304006-16.083864-85.948147 29.654624-112.084425q38.199176-82.429801 68.859041-162.346499t54.785661-160.336016q9.047173-30.157244-5.026207-53.780419t-38.199176-34.680831-52.272557-8.544553-46.743729 22.617933-22.115313 60.81711 21.612692 106.052976q11.057656 28.146761 19.099588 60.81711t8.041932 66.848558l0 10.052415q0 42.220142-16.083864 78.911456t-43.225384 63.832834-63.832834 42.722763-77.906215 15.581243-77.906215-15.581243-63.832834-42.722763-43.225384-63.832834-16.083864-78.911456z" />
	</symbol>
	<symbol viewBox="0 0 1024 1024" id="icon-Virgo">
		<title>处女座 8/23 - 9/22</title>
		<path d="M398.548233 261.13467q0-11.73639-1.956065-22.983763t-6.846227-22.005731q-4.890162-6.846227-9.291309-7.335244t-8.313276 1.467049q-5.868195 2.934097-10.758357 12.714422t-4.890162 27.384909q0.978032 122.254059-1.467049 248.420248t-4.401146 247.442216l-158.441261 0 0-485.104107q0-33.253104-15.64852-57.2149t-57.703916-23.961796l-17.604585 0q26.406877-30.319007 55.258835-44.011461t71.885387-13.692455q28.362942 0 52.813754 10.269341t42.055396 28.851958l3.91213-2.934097 4.890162-3.91213q25.428844-19.560649 52.813754-25.917861t49.879656-6.357211q27.384909 0 51.835721 10.269341t43.033429 28.851958l2.934097-2.934097 4.890162-3.91213q25.428844-19.560649 52.813754-25.917861t49.879656-6.357211q25.428844 0 48.412607 8.802292t40.099331 24.450812 27.873926 37.165234 10.758357 47.923591q1.956065 60.638013 0 147.682904 5.868195-16.626552 14.670487-34.231137t21.027698-32.275072 27.873926-23.961796 36.187202-9.291309q16.626552 0 39.610315 4.401146t44.011461 30.319007 35.698185 81.665712 14.670487 157.463228q0 74.330468-17.115568 133.012416t-43.033429 103.182426-56.236867 76.286533-56.725883 52.324737q6.846227 2.934097 13.692455 3.91213t14.670487 0.978032q18.582617 0 34.231137-5.868195t28.362942-13.692455q13.692455-8.802292 26.406877-20.538682l0 55.747851q-5.868195 15.64852-23.472779 27.384909-14.670487 10.758357-42.055396 19.071633t-74.330468 8.313276q-51.835721 0-89.978988-16.626552-28.362942 9.780325-57.703916 16.626552t-53.791786 11.73639q-28.362942 5.868195-55.747851 9.780325l0-60.638013q13.692455 0 30.319007-3.91213 13.692455-2.934097 32.764088-7.82426t41.56638-14.670487q-13.692455-18.582617-22.494747-41.56638t-14.181471-47.434575-8.313276-50.368672-3.91213-51.346705l0-16.626552 0-468.477555q0-11.73639-1.956065-22.983763t-6.846227-22.005731q-3.91213-6.846227-8.313276-7.82426t-8.313276 0.978032q-4.890162 2.934097-10.269341 11.247373t-6.357211 23.961796q0.978032 55.747851 0.489016 120.787011t-1.467049 131.545368-2.445081 131.056351-2.445081 118.341929l-157.463228 0 0-485.104107zM765.310411 542.808023l0 3.91213 0 16.626552q-0.978032 54.769819-1.956065 101.715377t-0.978032 81.176695q0 32.275072 2.445081 58.192932t7.335244 45.47851q37.165234-42.055396 61.616046-107.094556t24.450812-159.908309q0-89.978988-6.846227-133.990449t-16.626552-55.747851-21.516714 1.956065-22.494747 39.121299-17.604585 56.236867-7.82426 52.324737z" />
	</symbol>
	<symbol viewBox="0 0 1024 1024" id="icon-Libra">
		<title>天秤座 9/23 - 10/23</title>
		<path d="M113.664 743.424l796.672 0 0 148.48-796.672 0 0-148.48zM578.56 622.592l0-91.136q32.768-18.432 52.736-50.688t19.968-71.168q0-28.672-10.752-53.76t-29.696-43.52-44.544-29.184-54.272-10.752q-29.696 0-54.784 10.752t-44.544 29.184-30.208 43.52-10.752 53.76q0 38.912 19.456 70.656t51.2 49.152l0 93.184 0 57.344-328.704 0 0-149.504 118.784 0q-13.312-27.648-20.48-57.856t-7.168-62.976q0-59.392 24.064-112.64t65.536-92.16 97.792-61.952 119.808-23.04 119.808 23.04 97.792 61.952 65.536 92.16 24.064 112.64q0 32.768-7.168 62.976t-20.48 57.856l118.784 0 0 149.504-331.776 0 0-57.344z" />
	</symbol>
	<symbol viewBox="0 0 1024 1024" id="icon-Scorpio">
		<title>天蝎座 10/24 - 11/22</title>
		<path d="M790.733591 1022.023166q-41.513514 0-72.15444-8.895753-22.733591-6.918919-42.996139-19.76834t-42.996139-45.467181q-1.976834-2.965251-4.447876-5.930502t-4.447876-6.918919l-1.976834-2.965251q-21.745174-37.559846-29.158301-84.015444t-9.389961-92.911197l-0.988417-16.803089 0-474.440154q0-10.872587-1.482625-22.733591t-6.42471-22.733591q-7.907336-10.872587-17.791506-5.930502-4.942085 1.976834-9.88417 10.378378t-6.918919 24.216216q0.988417 56.339768 0.494208 122.563707t-1.482625 133.436293-1.976834 132.447876-1.976834 119.598456l-160.123552 0 0-491.243243q0-10.872587-1.976834-22.733591t-6.918919-22.733591q-6.918919-11.861004-17.791506-5.930502-4.942085 2.965251-10.378378 12.849421t-5.436293 27.675676q0.988417 123.552124-1.482625 251.057915t-4.447876 251.057915l-160.123552 0 0-491.243243q0-32.617761-15.814672-57.328185t-58.316602-24.710425l-17.791506 0q26.687259-30.640927 55.84556-44.478764t73.637066-13.837838q27.675676 0 52.3861 10.378378t42.501931 29.158301l3.953668-2.965251 4.942085-3.953668q25.698842-19.76834 53.374517-26.19305t50.409266-6.42471q28.664093 0 53.374517 10.378378t42.501931 29.158301l3.953668-2.965251 3.953668-3.953668q25.698842-19.76834 53.868726-26.19305t50.903475-6.42471q24.710425 0 47.938224 8.895753t41.019305 24.710425 28.664093 38.054054 10.872587 48.926641l0 61.281853q0 32.617761-0.494208 81.544402t-0.988417 103.783784-0.494208 111.196911-0.494208 102.301158 0 78.084942 1.482625 38.054054l1.976834 11.861004 2.965251 14.826255q7.907336 28.664093 17.297297 47.444015t21.745174 29.158301 28.169884 13.837838 35.583012 3.459459q16.803089-1.976834 32.617761-7.413127t27.675676-12.355212l-33.606178-61.281853 149.250965 4.942085-59.305019 159.135135q0-0.988417-8.401544-15.814672t-19.274131-36.571429q-5.930502 6.918919-16.30888 15.814672t-28.169884 16.30888-44.478764 12.849421-64.247104 5.436293z" />
	</symbol>
	<symbol viewBox="0 0 1024 1024" id="icon-Sagittarius">
		<title>射手座 11/23 - 12/21</title>
		<path d="M538.624 948.224l-146.432-145.408-182.272 182.272-105.472-104.448 183.296-183.296q-41.984-40.96-68.608-68.608l-44.032-43.008-23.552-24.576q-8.192-7.168-9.216-9.216l104.448-104.448 145.408 145.408 233.472-233.472q-62.464-15.36-101.376-25.088t-60.928-15.36-30.208-7.68l-10.24-2.048q-2.048-1.024-0.512-0.512t-0.512-0.512l35.84-143.36 371.712 92.16 91.136 370.688-144.384 35.84-49.152-195.584-229.376 229.376 145.408 146.432z" />
	</symbol>
</svg>