<svg version="1.1" xmlns="http://www.w3.org/2000/svg" viewBox="0 0 50 50" fill="#999999">
<path d="M39.8,12.9l-6,1.2c-0.5,0.1-0.8,0.5-0.8,1v0.2H13.1c-0.6,0-1.2,0.5-1.2,1.2c0,0.7,0.5,1.2,1.2,1.2H33v1.6H10
	c-0.4,0-0.7,0.2-0.9,0.6C8.9,20.3,9,20.7,9.2,21l5.5,8.5c0.2,0.3,0.5,0.5,0.8,0.5h16.3v2.3H18h-0.1c-1.8,0-3.2,1.5-3.2,3.4
	s1.4,3.4,3.2,3.4s3.2-1.5,3.2-3.4c0-0.5-0.1-0.9-0.2-1.3H29c-0.2,0.4-0.2,0.9-0.2,1.3c0,1.9,1.4,3.4,3.2,3.4c1.8,0,3.2-1.5,3.2-3.4
	c0-1.1-0.5-2.1-1.3-2.8v-3H34c0.6,0,1-0.5,1-1.1v-8.5v-0.1v-0.1V16l5.2-1.1c0.5-0.1,0.9-0.7,0.8-1.2C40.9,13.1,40.4,12.7,39.8,12.9z
	 M17.9,37.1c-0.7,0-1.2-0.6-1.2-1.3s0.5-1.3,1.2-1.3s1.2,0.6,1.2,1.3S18.5,37.1,17.9,37.1z M16.1,27.9l-4.2-6.4H33v6.4H16.1z
	 M32,37.1c-0.7,0-1.2-0.6-1.2-1.3s0.5-1.3,1.2-1.3s1.2,0.6,1.2,1.3S32.6,37.1,32,37.1z"/>
</svg>
