<svg version="1.1" xmlns="http://www.w3.org/2000/svg" viewBox="0 0 50 50" fill="#999999">
<g>
	<path class="st0" d="M11.6,16.4h2.8l1.3,22.7c0,0.5,0.4,0.8,0.9,0.8h16.9c0.5,0,0.9-0.4,0.9-0.8l1.3-22.7h2.8
		c0.5,0,0.9-0.4,0.9-0.9c0-0.5-0.4-0.9-0.9-0.9h-3.3c0,0-0.1,0-0.1,0c0,0-0.1,0-0.1,0h-4.7v-2.3c0-0.5-0.4-0.9-0.9-0.9h-8.4
		c-0.5,0-0.9,0.4-0.9,0.9v2.3h-4.7c0,0-0.1,0-0.1,0c0,0-0.1,0-0.1,0h-3.4c-0.5,0-0.9,0.4-0.9,0.9S11.1,16.4,11.6,16.4z M21.7,13.2
		h6.6v1.4h-6.6V13.2z M33.8,16.4l-1.2,21.8H17.4l-1.2-21.8C16.2,16.4,33.8,16.4,33.8,16.4z"/>
	<path class="st0" d="M20.3,36.4C20.4,36.4,20.4,36.4,20.3,36.4c0.6,0,1-0.5,1-1.1l-1.1-18.5c0-0.6-0.5-1-1.1-0.9
		c-0.6,0-1,0.5-0.9,1.1l1.1,18.5C19.4,36,19.8,36.4,20.3,36.4z"/>
	<path class="st0" d="M30.1,36.4C30.2,36.4,30.2,36.4,30.1,36.4c0.6,0,1-0.4,1.1-0.9l1.1-18.5c0-0.6-0.4-1-0.9-1.1
		c-0.5,0-1,0.4-1.1,0.9l-1.1,18.5C29.2,35.9,29.6,36.4,30.1,36.4z"/>
	<path class="st0" d="M25.3,36.4c0.6,0,1-0.4,1-1V16.9c0-0.6-0.4-1-1-1s-1,0.4-1,1v18.5C24.3,35.9,24.7,36.4,25.3,36.4z"/>
</g>
</svg>
