<svg xmlns="http://www.w3.org/2000/svg" viewBox="0 0 50 50" fill="#93C922"><path d="M39.18,18.33H31.07a5.4,5.4,0,0,0,1.6-3.57,3,3,0,0,0-.86-2.17,3.06,3.06,0,0,0-2.19-.83,5.69,5.69,0,0,0-3.8,1.72,6.52,6.52,0,0,0-.82,1,6.47,6.47,0,0,0-.82-1,5.69,5.69,0,0,0-3.8-1.72,3.05,3.05,0,0,0-2.19.83,3,3,0,0,0-.86,2.17,5.4,5.4,0,0,0,1.6,3.57H10.82a0.94,0.94,0,0,0-.95.95v6.59a0.94,0.94,0,0,0,.95.95h1.51V37.29a0.94,0.94,0,0,0,.95.95H36.73a0.94,0.94,0,0,0,.95-0.95V26.81h1.51a0.94,0.94,0,0,0,.95-0.95V19.28A0.94,0.94,0,0,0,39.18,18.33Zm-12-3.5a3.83,3.83,0,0,1,2.48-1.18,1.24,1.24,0,0,1,.87.29,1.09,1.09,0,0,1,.29.82,3.63,3.63,0,0,1-1.2,2.39,3.84,3.84,0,0,1-2.48,1.18A1.24,1.24,0,0,1,26.24,18a1.09,1.09,0,0,1-.29-0.82A3.63,3.63,0,0,1,27.14,14.83ZM29,20.23v4.7H21v-4.7H29Zm-9.8,16.12H14.21V26.81h4.94v9.53Zm0.35-22.4a1.24,1.24,0,0,1,.87-0.29,3.84,3.84,0,0,1,2.48,1.18,3.64,3.64,0,0,1,1.2,2.39,1.09,1.09,0,0,1-.29.82,1.24,1.24,0,0,1-.87.29,3.84,3.84,0,0,1-2.48-1.18,3.64,3.64,0,0,1-1.2-2.39A1.1,1.1,0,0,1,19.51,13.95Zm16.28,22.4H30.85V26.81h4.94v9.53Z"/></svg>