<svg version="1.1" xmlns="http://www.w3.org/2000/svg" viewBox="0 0 83.44 94" fill="#fff"><path d="M115.74,28.82a3.64,3.64,0,0,0-2.61-.35C92,33.24,92.12,56.26,92.19,85.4l0,5.08c0,1.26,1.42,2,3.13,2h15.23v27.26c0,1.26,1.35,2.28,3.06,2.28s3.06-1,3.06-2.28V30.66a1.89,1.89,0,0,0-1-1.84h0Zm-5.14,59.12H98.46l-0.24-2.83c-0.06-24.88,0-44.7,12.38-50.88V87.94h0Z" transform="translate(-33.28 -28)" /><path d="M61.14,28c-1.71,0-3.06,1-3.06,2.28V53.62H51.81V30.28C51.81,29,50.45,28,48.74,28s-3.06,1-3.06,2.28V53.62H39.41V30.28C39.41,29,38.05,28,36.34,28s-3.06,1-3.06,2.28V60c0,1.89,1.53,4.21,3.38,5.51l7.89,5.64a4.61,4.61,0,0,1,1.13.65v47.74c0,1.26,1.35,2.28,3.06,2.28s3.06-1,3.06-2.28V71.82c1.46-.2,1.16-0.42,1.56-0.71l7.77-5.62A7.39,7.39,0,0,0,64.21,60V30.28C64.21,29,62.85,28,61.14,28h0ZM57,62.2l-7.79,5.62s0,0,0,0l-8.26-5.66A3.88,3.88,0,0,1,39.41,60V58.14H58.08V60A3.33,3.33,0,0,1,57,62.2h0Z" transform="translate(-33.28 -28)" /></svg>