<svg version="1.1" xmlns="http://www.w3.org/2000/svg" viewBox="0 0 93.98 94" fill="#ddd"><path d="M75,34.13v17h5.64V34.51A41.51,41.51,0,0,0,75,34.13h0Z" transform="translate(-28.01 -28)" /><path d="M80.62,69.92a6.86,6.86,0,0,0-2-1.26L54.48,53.46,69.68,77.6a6.87,6.87,0,0,0,1.25,2l0.19,0.31,0.05-.05a6.85,6.85,0,0,0,9.69-9.69l0,0Z" transform="translate(-28.01 -28)" /><path d="M108.25,41.76A46.66,46.66,0,0,0,80.64,28.33v6.18A40.88,40.88,0,1,1,46.11,46.09l0.33-.3-5.2-3.47A47,47,0,1,0,108.25,41.76Z" transform="translate(-28.01 -28)" /><path d="M75,28h0Z" transform="translate(-28.01 -28)" /></svg>