<svg id="图层_1" data-name="图层 1" xmlns="http://www.w3.org/2000/svg" viewBox="0 0 103 88.96"><title>购物车式菜单</title><path d="M122.37,30.54a15.79,15.79,0,0,0-11.21,4.1c-3.5,3.28-5.28,8.08-5.28,14.26,0,11.61,0,42.47,0,42.47a10.85,10.85,0,0,1-10.84,10.84H43.23A10.85,10.85,0,0,1,32.39,91.37V65.8A10.85,10.85,0,0,1,43.23,55H90.48a4.42,4.42,0,0,0,0-8.84H43.23A19.7,19.7,0,0,0,23.55,65.8V91.37a19.7,19.7,0,0,0,19.68,19.68H95.06a19.7,19.7,0,0,0,19.68-19.68s0-30.85,0-42.47c0-3.6.81-6.2,2.42-7.75a7.11,7.11,0,0,1,4.62-1.79h0a4.42,4.42,0,1,0,.59-8.82h0Z" transform="translate(-23.5 -30.52)" style="fill:#272536;fill-rule:evenodd"/><path d="M90.54,64.76H47.84a4.42,4.42,0,0,0,0,8.84H90.54a4.42,4.42,0,1,0,0-8.84h0Z" transform="translate(-23.5 -30.52)" style="fill:#272536;fill-rule:evenodd"/><path d="M90.54,83.42H47.84a4.42,4.42,0,0,0,0,8.84H90.54a4.42,4.42,0,1,0,0-8.84h0Z" transform="translate(-23.5 -30.52)" style="fill:#272536;fill-rule:evenodd"/><path d="M110.21,119.48h0Zm-5.89,0h0Z" transform="translate(-23.5 -30.52)" style="fill:#272536;fill-rule:evenodd"/><path d="M29.39,119.48h0Zm-5.89,0h0Z" transform="translate(-23.5 -30.52)" style="fill:#272536;fill-rule:evenodd"/></svg>