<svg version="1.1" xmlns="http://www.w3.org/2000/svg" viewBox="0 0 88.18 93.79" fill="#A35BA6"><path d="M75,78.05a6,6,0,0,0,6-6.21V34.41A6,6,0,0,0,79.31,30a5.87,5.87,0,0,0-4.42-1.87A5.56,5.56,0,0,0,70.66,30,6,6,0,0,0,69,34.41V71.85a5.86,5.86,0,0,0,1.69,4.38A5.7,5.7,0,0,0,75,78.05Z" transform="translate(-30.91 -28.1)"/><path d="M117.81,67.27a42.58,42.58,0,0,0-3.74-9.8,46.66,46.66,0,0,0-5.91-8.62,44.28,44.28,0,0,0-7.88-7.14,6.22,6.22,0,0,0-4.73-1,6,6,0,0,0-4,2.51,6.22,6.22,0,0,0-1,4.73,5.94,5.94,0,0,0,2.61,4,30.72,30.72,0,0,1,10,11.28,31.15,31.15,0,0,1,3.55,14.53A30.36,30.36,0,0,1,104.06,90a32,32,0,0,1-16.85,16.85,31.2,31.2,0,0,1-24.53,0,32.33,32.33,0,0,1-10-6.8,31.64,31.64,0,0,1-6.75-10,30.89,30.89,0,0,1-2.46-12.27,31.28,31.28,0,0,1,3.3-14.19,30.6,30.6,0,0,1,9.51-11.13,6.21,6.21,0,0,0,2.46-4.14,5.88,5.88,0,0,0-1.18-4.63,6.18,6.18,0,0,0-4.09-2.46,6.09,6.09,0,0,0-4.68,1.18,47.88,47.88,0,0,0-7.49,7.09A42.17,42.17,0,0,0,35.64,58a45.54,45.54,0,0,0-3.5,9.56A44.08,44.08,0,0,0,34.36,95a43.87,43.87,0,0,0,9.46,14,45.58,45.58,0,0,0,14,9.46,43.76,43.76,0,0,0,34.29,0A44.5,44.5,0,0,0,115.59,95a42.58,42.58,0,0,0,3.5-17.19A43.49,43.49,0,0,0,117.81,67.27Z" transform="translate(-30.91 -28.1)"/></svg>