<svg version="1.1" xmlns="http://www.w3.org/2000/svg" viewBox="0 0 93 93.66" fill="#3EB96B"><path d="M117.88,78.13a4.39,4.39,0,0,0-5.09,3.55A38,38,0,1,1,65.68,38.21a38,38,0,0,1,46.44,27.15,4.39,4.39,0,1,0,8.49-2.23,46.78,46.78,0,1,0,.82,20.08,4.39,4.39,0,0,0-3.55-5.09h0Z" transform="translate(-28.5 -28.17)"/><path d="M101.39,75A4.39,4.39,0,0,0,97,70.62H67.18L79.8,58a4.39,4.39,0,0,0-6.21-6.21L53.52,71.86l-0.05,0a4.4,4.4,0,0,0,0,6.21l0,0L73.59,98.23A4.39,4.39,0,1,0,79.8,92L67.18,79.4H97A4.39,4.39,0,0,0,101.39,75h0Z" transform="translate(-28.5 -28.17)"/></svg>