<svg version="1.1" xmlns="http://www.w3.org/2000/svg" viewBox="0 0 80.5 91.21" fill="#ddd"><path d="M101.48,55.51A2.48,2.48,0,0,1,99,58H51a2.48,2.48,0,0,1-2.48-2.48h0A2.48,2.48,0,0,1,51,53H99a2.48,2.48,0,0,1,2.48,2.48h0Z" transform="translate(-34.75 -29.4)" /><path d="M101.48,71.08A2.48,2.48,0,0,1,99,73.56H51a2.48,2.48,0,0,1-2.48-2.48h0A2.48,2.48,0,0,1,51,68.6H99a2.48,2.48,0,0,1,2.48,2.48h0Z" transform="translate(-34.75 -29.4)" /><path d="M86.25,86.65a2.48,2.48,0,0,1-2.48,2.48H51a2.48,2.48,0,0,1-2.48-2.48h0A2.48,2.48,0,0,1,51,84.18H83.77a2.48,2.48,0,0,1,2.48,2.48h0Z" transform="translate(-34.75 -29.4)" /><path d="M106.34,29.4H43.66a9,9,0,0,0-8.91,9.12v79.6a2.46,2.46,0,0,0,2.43,2.49,2.3,2.3,0,0,0,.4,0,2.51,2.51,0,0,0,.41,0,2.39,2.39,0,0,0,1.5-.53L51.68,112l10,8.07a2.39,2.39,0,0,0,3,0l10.38-8.37,10.06,8.11a2.39,2.39,0,0,0,3,0l10-8.06L110.51,120a7.28,7.28,0,0,0,2.31.64,2.46,2.46,0,0,0,2.43-2.49V38.52a9,9,0,0,0-8.91-9.12h0Zm4.05,84.14-10.75-6.91a2.39,2.39,0,0,0-3,0l-10,8.06-10.06-8.11a2.39,2.39,0,0,0-3,0l-10.38,8.37-10-8.07a2.39,2.39,0,0,0-3,0l-10.56,6.76V38.52a4.1,4.1,0,0,1,4.05-4.15h62.68a4.1,4.1,0,0,1,4.05,4.15v75h0Z" transform="translate(-34.75 -29.4)" /></svg>