<svg version="1.1" xmlns="http://www.w3.org/2000/svg" viewBox="0 0 38.04 94.04" fill="#fff"><path d="M113,97.38h0Z" transform="translate(-55.71 -27.98)" /><path d="M71,58.53h0Z" transform="translate(-55.71 -27.98)" /><path d="M79,58.64h0Z" transform="translate(-55.71 -27.98)" /><path d="M93.73,106.11C91.56,87.85,82.49,57.48,80.48,50.88,87,43.77,89.22,32.53,89.32,32a2.2,2.2,0,0,0-1.7-2.57A72.62,72.62,0,0,0,74.77,28a73.63,73.63,0,0,0-12.89,1.48A2.2,2.2,0,0,0,60.17,32c0.1,0.5,2.32,11.74,8.82,18.85-2,6.6-11.1,36.95-13.27,55.21a2.2,2.2,0,0,0,.49,1.66c0.24,0.29,6,7.19,17.21,14a2.12,2.12,0,0,0,1.1.31,2.25,2.25,0,0,0,.63-0.1,2,2,0,0,0,1.16-.61c11.88-6.7,16.8-13.37,17-13.65a2.2,2.2,0,0,0,.4-1.55h0Zm-19-73.73a63.71,63.71,0,0,1,9.71.84c-0.94,3.45-3.21,10.21-7.39,14.6H72.39c-4.19-4.39-6.45-11.15-7.38-14.6a64.43,64.43,0,0,1,9.75-.84h0Zm-0.19,84.87a71.44,71.44,0,0,1-14.36-11.77C62.48,88,71,59.92,73.1,52.21h3.27C78.48,59.92,87,88.1,89.25,105.58c-1.44,1.7-6,6.69-14.67,11.67h0Z" transform="translate(-55.71 -27.98)"/></svg>