<svg version="1.1" xmlns="http://www.w3.org/2000/svg" viewBox="0 0 75.33 93.67" fill="#3EB96B"><path d="M98.67,61.79V51.84a23.67,23.67,0,1,0-47.35,0v9.95a18.86,18.86,0,0,0-14,18.2V91.5a2.68,2.68,0,0,0,5.37,0V80A13.48,13.48,0,0,1,56.16,66.52H93.83A13.48,13.48,0,0,1,107.3,80v23a13.48,13.48,0,0,1-13.46,13.46H56.16A13.48,13.48,0,0,1,42.7,103a2.68,2.68,0,0,0-5.37,0,18.85,18.85,0,0,0,18.83,18.83H93.84A18.85,18.85,0,0,0,112.67,103V80a18.86,18.86,0,0,0-14-18.2h0ZM75,33.53A18.33,18.33,0,0,1,93.3,51.84v9.32H56.69V51.84A18.33,18.33,0,0,1,75,33.53h0Z" transform="translate(-37.33 -28.17)" /><path d="M82.16,85.76A7.16,7.16,0,1,0,72,92.25l-1,12.91a2.42,2.42,0,0,0,2.6,2.18h4.22a2.42,2.42,0,0,0,2.6-2.18L78.6,91.94a7.15,7.15,0,0,0,3.55-6.18h0Z" transform="translate(-37.33 -28.17)" /></svg>