<svg version="1.1" xmlns="http://www.w3.org/2000/svg" viewBox="0 0 86 93.46" fill="#888"><path d="M115.34,76.49h0a2.7,2.7,0,0,0-2.69,2.66,37.61,37.61,0,1,1-43-37.66l-5.42,6.93a2.69,2.69,0,0,0,4.25,3.32L77.57,40.1a2.64,2.64,0,0,0,.3-0.48h0A2.67,2.67,0,0,0,78,39.16l0-.1a2.58,2.58,0,0,0,.05-0.35c0-.07,0-0.14,0-0.21s0,0,0,0a2.32,2.32,0,0,0,0-.28c0-.07,0-0.14,0-0.21v0A2.56,2.56,0,0,0,78,37.53s0-.08,0-0.11a2.68,2.68,0,0,0-.25-0.48l0-.06a2.69,2.69,0,0,0-.29-0.36l-0.14-.12a2.8,2.8,0,0,0-.28-0.22l0,0L65.2,28.69a2.7,2.7,0,0,0-2.9,4.54l5,3.2a43,43,0,0,0,7.21,85.29H75a43,43,0,0,0,43-42.52,2.69,2.69,0,0,0-2.66-2.73h0Z" transform="translate(-32 -28.27)"/></svg>