<svg version="1.1" xmlns="http://www.w3.org/2000/svg" xmlns:xlink="http://www.w3.org/1999/xlink" viewBox="0 0 100 100" fill="#fff">
	<circle cx="30.3" cy="81.8" r="5.9"/>
	<circle cx="77.9" cy="81.8" r="5.9"/>
	<path d="M89.9,39.6c-0.8-7.3-6.6-13.1-13.9-13.9H28.6l-2.1-6c-1.7-5.5-4.4-7.3-8.5-7.4h-4c-2.2,0-4,1.8-4,4s1.8,4,4,4h4
		c0.3,0.1,0.5,0.3,0.6,0.6l2.6,9.9l0.1,0.3c0.5,1.6,2,2.7,3.8,2.7h49.5H75c4.1,0.3,7.3,3.9,7,8c-0.3,3.7-3.2,6.7-7,7h-0.3H30.5
		c-2,0.3-3.5,1.9-3.5,3.9c0,0.1,0,0.3,0,0.4L30.3,66c0.7,4.2,4.2,7.3,8.5,7.3h39.4c2.2,0,4-1.8,4-4s-1.8-4-4-4H38.8
		c-0.3-0.1-0.5-0.3-0.6-0.5v-0.1l-1.9-7.9h38.8l1-0.1C84.6,55.9,90.8,48.2,89.9,39.6z"/>
</svg>
