<?xml version="1.0" standalone="no"?><!DOCTYPE svg PUBLIC "-//W3C//DTD SVG 1.1//EN" "http://www.w3.org/Graphics/SVG/1.1/DTD/svg11.dtd"><svg t="1507537054378" class="icon" style="" viewBox="0 0 1024 1024" version="1.1" xmlns="http://www.w3.org/2000/svg" p-id="7338" xmlns:xlink="http://www.w3.org/1999/xlink" width="64" height="64"><defs><style type="text/css"></style></defs><path d="M8.07767 517.592233C4.970874 234.873786 228.038835 3.728155 506.407767 0.621359c277.747573-3.106796 505.786408 223.68932 508.893204 505.786408 3.106796 282.097087-219.961165 513.864078-497.708738 516.970874-278.368932 2.485437-506.407767-223.68932-509.514563-505.786408" fill="#77B4BE" p-id="7339"></path><path d="M512 512m-512 0a512 512 0 1 0 1024 0 512 512 0 1 0-1024 0Z" fill="#EA7570" p-id="7340"></path><path d="M512 512m-398.912621 0a398.912621 398.912621 0 1 0 797.825242 0 398.912621 398.912621 0 1 0-797.825242 0Z" fill="#EEEEF0" p-id="7341"></path><path d="M512 512m-262.834951 0a262.834951 262.834951 0 1 0 525.669902 0 262.834951 262.834951 0 1 0-525.669902 0Z" fill="#EA7570" p-id="7342"></path><path d="M512 512m-119.92233 0a119.92233 119.92233 0 1 0 239.84466 0 119.92233 119.92233 0 1 0-239.84466 0Z" fill="#EEEEF0" p-id="7343"></path><path d="M912.776699 223.68932l-85.747573 83.883496c-5.592233 5.592233-13.669903 7.456311-21.747573 4.970873l-52.194174-17.398058-16.15534-54.679612c-2.485437-7.456311 0-16.15534 5.592233-21.126213l85.126213-79.533981 9.320389 75.184466 75.805825 8.699029z" fill="#F0C418" p-id="7344"></path><path d="M828.893204 139.805825l-85.126214 79.533981c-5.592233 5.592233-8.07767 13.669903-5.592233 21.126213l15.533981 52.815534 84.504854-84.504854-9.320388-68.970874z" fill="#77B4BE" p-id="7345"></path><path d="M838.213592 214.990291l-0.621359-6.213592-84.504854 84.504854 0.621359 1.864078 52.194175 17.398058c7.456311 2.485437 15.533981 0.621359 21.747572-4.970873L912.776699 223.68932l-74.563107-8.699029z" fill="#82BDD8" p-id="7346"></path><path d="M536.23301 500.815534v11.184466h-15.533981c0 1.242718-0.621359 2.485437-0.621359 3.728155 0 6.834951 2.485437 13.669903 7.456311 18.640777l338.640776 347.961165 21.126214-21.126214-351.067961-360.388349z" fill="#18142D" p-id="7347"></path><path d="M890.407767 173.359223c1.242718 1.242718 1.242718 2.485437 1.242718 3.728156 0 1.242718-0.621359 2.485437-1.242718 3.728155L531.883495 533.747573c-1.864078 1.864078-4.970874 1.864078-7.456311 0l-6.834951-6.834952c-1.864078-1.864078-3.106796-4.970874-3.106796-8.07767s1.242718-5.592233 3.106796-8.077669l354.174757-348.582525c1.864078-1.864078 4.970874-1.864078 7.456311 0l11.184466 11.184466z" fill="#E0DDDE" p-id="7348"></path><path d="M879.84466 162.796117c-1.864078-1.864078-4.970874-1.864078-7.45631 0l-354.174758 348.582524c-1.864078 1.864078-3.106796 4.970874-3.106796 8.07767s1.242718 5.592233 3.106796 8.07767l4.349515 4.349514 363.495145-363.495145-6.213592-5.592233z" fill="#374552" p-id="7349"></path><path d="M885.436893 168.38835L521.941748 531.262136l2.485436 2.485437c1.864078 1.864078 4.970874 1.864078 7.456311 0l359.145631-352.932039c1.242718-1.242718 1.242718-2.485437 1.242719-3.728155 0-1.242718-0.621359-2.485437-1.242719-3.728156l-5.592233-4.970873z" fill="#374552" p-id="7350"></path></svg>