<?xml version="1.0" encoding="utf-8"?>
<!-- Generator: Adobe Illustrator 20.0.0, SVG Export Plug-In . SVG Version: 6.00 Build 0)  -->
<svg version="1.1" id="图层_1" xmlns="http://www.w3.org/2000/svg" xmlns:xlink="http://www.w3.org/1999/xlink" x="0px" y="0px"
	 viewBox="0 0 100 100" style="enable-background:new 0 0 100 100;" xml:space="preserve">
<style type="text/css">
	.st0{fill:#FBBC05;}
	.st1{fill:#34A753;}
	.st2{fill:#EB4335;}
	.st3{fill:#4285F4;}
</style>
<g>
	<path class="st0" d="M36.9,48.1L22.1,35.8c-2.3-1.9-2.6-5.3-0.7-7.6l0,0c1.9-2.3,5.3-2.6,7.6-0.7l14.8,12.2
		c2.3,1.9,2.6,5.3,0.7,7.6l0,0C42.7,49.6,39.2,50,36.9,48.1z"/>
	<path class="st1" d="M45.3,33.1l-5.4-14.9c-1-2.7,0.4-5.8,3.2-6.8l0,0c2.7-1,5.8,0.4,6.8,3.2l5.4,14.9c1,2.7-0.4,5.8-3.2,6.8l0,0
		C49.3,37.3,46.3,35.9,45.3,33.1z"/>
	<path class="st2" d="M29.7,61.4l-15.1-2.2c-2.9-0.4-4.9-3.1-4.5-6l0,0c0.4-2.9,3.1-4.9,6-4.5l15.1,2.2c2.9,0.4,4.9,3.1,4.5,6v0
		C35.2,59.8,32.5,61.8,29.7,61.4z"/>
	<path class="st3" d="M66.6,48.7c5.5,0.2,11.9-0.2,19.1-1.2c0,0,4.9-0.7,4.2-5.6c-0.7-4.9-5.6-4.2-5.6-4.2c-6.5,1.1-12,1.7-16.6,1.6
		c0,0,0.7-7.2,0.7-7.6c0-0.4,0.2-4.3-4.5-4.5c-4.5-0.2-4.9,4.2-4.9,4.2c-0.7,9.5-1.8,18-3.4,25.7c-0.3,1.4-0.8,3.3-1.4,5.7L52,62.2
		c-6.4-1.3-11.8-0.8-16.1,1.6c-4.4,2.4-7,5.7-8,10.1c-0.7,3.2-0.1,6,1.7,8.3c2.1,2.7,4.8,4.4,8.1,5.1c5.7,1.2,10.9-0.3,15.5-4.4
		c2.4-2.1,4.6-5,6.4-8.5c1.9,0.9,3.4,1.6,4.7,2.3c5.8,3.2,11.2,6.8,16.1,10.8c0,0,3.9,3,6.9-0.7c3-3.7-0.7-6.9-0.7-6.9
		c-7.5-6-15.4-10.8-23.6-14.3c0.9-3.1,1.5-5.4,1.8-6.9C65.3,56.5,65.8,53.1,66.6,48.7z M47.2,75.6c-2.8,3-5.4,4.2-7.9,3.7
		c-2.2-0.5-3.1-1.6-2.7-3.6c0.5-2.5,2.4-4,5.5-4.5c2.2-0.4,4.8-0.3,7.8,0.4l0.3,0.1C49.5,73.1,48.4,74.5,47.2,75.6z"/>
</g>
</svg>
