<?xml version="1.0" encoding="utf-8"?>
<!-- Generator: Adobe Illustrator 20.0.0, SVG Export Plug-In . SVG Version: 6.00 Build 0)  -->
<svg version="1.1" id="图层_1" xmlns="http://www.w3.org/2000/svg" xmlns:xlink="http://www.w3.org/1999/xlink" x="0px" y="0px"
	 viewBox="0 0 100 100" style="enable-background:new 0 0 100 100;" xml:space="preserve">
<style type="text/css">
	.st0{fill:#FBBC05;}
	.st1{fill:#34A753;}
	.st2{fill:#EB4335;}
	.st3{fill:#4285F4;}
</style>
<g>
	<path class="st0" d="M36.9,47L22.1,34.8c-2.3-1.9-2.6-5.3-0.7-7.6l0,0c1.9-2.3,5.3-2.6,7.6-0.7l14.8,12.2c2.3,1.9,2.6,5.3,0.7,7.6
		l0,0C42.6,48.6,39.2,48.9,36.9,47z"/>
	<path class="st1" d="M45.2,32.1l-5.4-14.9c-1-2.7,0.4-5.8,3.2-6.8l0,0c2.7-1,5.8,0.4,6.8,3.2l5.4,14.9c1,2.7-0.4,5.8-3.2,6.8l0,0
		C49.2,36.3,46.2,34.9,45.2,32.1z"/>
	<path class="st2" d="M29.6,60.3l-15.1-2.2c-2.9-0.4-4.9-3.1-4.5-6l0,0c0.4-2.9,3.1-4.9,6-4.5l15.1,2.2c2.9,0.4,4.9,3.1,4.5,6v0
		C35.2,58.7,32.5,60.7,29.6,60.3z"/>
	<g>
		<path class="st3" d="M88.3,36.9l1.3,9.9c-8.6,1.3-16.1,1.9-22.4,1.7c-0.7,4.3-1.3,7.7-1.7,10.2c-0.3,1.5-0.9,3.8-1.8,6.9
			C72.9,69.4,81.7,74.9,90,82l-6,7.8c-5.7-5-12-9.4-19-13.2c-1.3-0.7-2.8-1.5-4.7-2.3c-1.8,3.5-4,6.3-6.4,8.5
			c-4.6,4.1-9.8,5.5-15.5,4.3c-3.3-0.7-6-2.4-8.1-5.1c-1.8-2.3-2.3-5.1-1.7-8.3c0.9-4.4,3.6-7.8,8-10.1c4.3-2.4,9.7-2.9,16.1-1.6
			l2.2,0.5c0.6-2.4,1.1-4.3,1.4-5.7c1.8-8.4,3-17.9,3.6-28.6l9.4,0.4l-0.9,10.6C73.7,39.2,80.4,38.4,88.3,36.9z M51.1,71.4l-0.3-0.1
			c-3-0.6-5.6-0.7-7.8-0.4c-3.2,0.6-5,2.1-5.5,4.5c-0.4,1.9,0.5,3.1,2.7,3.5c2.4,0.5,5.1-0.7,7.9-3.7C49.2,74.2,50.2,72.9,51.1,71.4
			z"/>
	</g>
</g>
</svg>
