<?xml version="1.0" encoding="utf-8"?>
<!-- Generator: Adobe Illustrator 20.0.0, SVG Export Plug-In . SVG Version: 6.00 Build 0)  -->
<svg version="1.1" id="图层_1" xmlns="http://www.w3.org/2000/svg" xmlns:xlink="http://www.w3.org/1999/xlink" x="0px" y="0px"
	 viewBox="0 0 100 100" style="enable-background:new 0 0 100 100;" xml:space="preserve">
<g>
	<path d="M89.8,36.5c-0.3-2.2-2.2-3.7-4.4-3.4c-2.2,0.3-3.7,2.2-3.4,4.4c0,0.1,0,0.2,0,0.3c0.1,0.8,0.2,1.5,0.2,2.3
		c0,5.2-2.7,9-5.1,12.3c-7.3,10-26.4,23.1-26.6,23.3c-0.2,0.2-0.6,0.2-0.8,0C43,71,28.8,60.3,23,52.3c-2.4-3.3-5.1-7.1-5.1-12.3
		c0-8.6,7.3-15.6,16.4-15.6c5.1,0,10.8,6.9,12.8,9.2c0.7,0.9,1.8,1.4,3,1.4c1.2,0,2.3-0.5,3-1.4c1.9-2.3,7.7-9.2,12.8-9.2
		c1,0,1.9,0.1,2.9,0.2c2.1,0.4,4.2-1.1,4.6-3.2c0.4-2.1-1.1-4.2-3.2-4.6c-1.4-0.2-2.8-0.4-4.2-0.4c-6.2,0-11.6,4.3-15.7,8.6
		c-4.2-4.3-9.6-8.6-15.8-8.6C20.8,16.5,10,27,10,40c0,7.7,3.8,13,6.6,16.9c7.9,10.9,26.5,23.7,28.5,25.2c2.9,2,6.7,2,9.6,0
		c0.8-0.6,20.5-14,28.5-25.2C86.2,53,90,47.7,90,40C90,38.8,89.9,37.6,89.8,36.5z"/>
	<circle cx="79" cy="27.2" r="4.2"/>
</g>
</svg>
