<?xml version="1.0" encoding="utf-8"?>
<!-- Generator: Adobe Illustrator 20.0.0, SVG Export Plug-In . SVG Version: 6.00 Build 0)  -->
<svg version="1.1" id="图层_1" xmlns="http://www.w3.org/2000/svg" xmlns:xlink="http://www.w3.org/1999/xlink" x="0px" y="0px"
	 viewBox="0 0 100 100" style="enable-background:new 0 0 100 100;" xml:space="preserve">
<g>
	<path d="M38.3,66.7c-2.3,0-4.2,1.9-4.2,4.2c0,2.3,1.9,4.2,4.2,4.2s4.2-1.9,4.2-4.2C42.5,68.6,40.6,66.7,38.3,66.7z"/>
	<path d="M87.6,12.4c-1.4-1.5-3.4-2.3-5.4-2.4H17.8c-4.3,0.1-7.7,3.6-7.6,7.9c0,1.9,0.8,3.7,2.1,5.1l22.1,22.7V59
		c0.1,2.2,1.9,3.9,4.1,3.9c2.1,0,3.8-1.8,3.7-3.9V43.4c0-0.8-0.1-1-0.4-1.4L18.1,18.1C18,18,18,17.8,18,17.8h64.1
		c-0.1,0-0.1,0.2-0.2,0.3L57.9,42c-0.4,0.4-0.8,0.9-0.8,1.5v0.6c0,3.7,0,22.5,0.1,38.2C57,82.2,57,82.1,56.9,82l-4.7-4.9
		c-1.3-1.6-3.8-1.9-5.4-0.5c-1.6,1.3-1.9,3.8-0.5,5.4c0.1,0.1,0.2,0.2,0.3,0.3l5.5,5.4c0.1,0.1,0.2,0.2,0.3,0.2
		c1.3,1.3,3.2,2.1,5,2.1c4.1,0,7.5-3.4,7.5-7.5v-0.1V45.8l22.5-22.3c0.1-0.1,0.2-0.2,0.3-0.3c1.4-1.4,2.1-3.3,2.1-5.3
		C89.8,15.8,89,13.8,87.6,12.4z"/>
</g>
</svg>
