<?xml version="1.0" encoding="utf-8"?>
<!-- Generator: Adobe Illustrator 20.0.0, SVG Export Plug-In . SVG Version: 6.00 Build 0)  -->
<svg version="1.1" id="图层_1" xmlns="http://www.w3.org/2000/svg" xmlns:xlink="http://www.w3.org/1999/xlink" x="0px" y="0px"
	 viewBox="0 0 100 100" style="enable-background:new 0 0 100 100;" xml:space="preserve">
<g>
	<path d="M79.9,82.8c-17.7-12.9-41.7-12.9-59.4,0c-1.8,1.2-2.3,3.7-1.1,5.5c1.2,1.8,3.7,2.3,5.5,1.1c0.1-0.1,0.2-0.1,0.2-0.2
		c15-10.9,35.2-10.9,50.2,0c1.8,1.2,4.2,0.7,5.5-1.1C81.8,86.4,81.5,84.1,79.9,82.8z"/>
	<path d="M48.7,70.2c8,0,15.7-3.2,21.3-8.9c7.5-7.5,10.5-18.5,7.9-28.8c-0.6-2.1-2.8-3.3-4.9-2.6c-2,0.6-3.2,2.6-2.7,4.6
		c1.9,7.6-0.3,15.7-5.8,21.3c-9,8.4-23.1,7.9-31.5-1.1c-8-8.6-8-21.9,0-30.4c4.2-4.2,9.9-6.5,15.8-6.5c1.8,0,3.7,0.2,5.5,0.7
		c2.1,0.6,4.3-0.6,4.9-2.6c0.6-2.1-0.6-4.3-2.6-4.9c-0.1,0-0.2-0.1-0.3-0.1c-2.4-0.6-4.9-0.9-7.4-0.9c-8,0-15.7,3.2-21.3,8.9
		c-11.7,11.8-11.7,30.8,0,42.6C33.1,67.1,40.8,70.2,48.7,70.2z"/>
	<path d="M67.2,25.9c2.4,0,4.3-1.9,4.3-4.3c0-2.4-1.9-4.3-4.3-4.3c-2.4,0-4.3,1.9-4.3,4.3c0,1.2,0.5,2.3,1.3,3.1
		C65,25.5,66.1,25.9,67.2,25.9z"/>
</g>
</svg>
