<?xml version="1.0" encoding="utf-8"?>
<!-- Generator: Adobe Illustrator 20.0.0, SVG Export Plug-In . SVG Version: 6.00 Build 0)  -->
<svg version="1.1" id="图层_1" xmlns="http://www.w3.org/2000/svg" xmlns:xlink="http://www.w3.org/1999/xlink" x="0px" y="0px"
	 viewBox="0 0 100 100" style="enable-background:new 0 0 100 100;" xml:space="preserve">
<g>
	<circle cx="37.4" cy="38.8" r="4.9"/>
	<circle cx="62.4" cy="38.8" r="4.9"/>
	<path d="M50,70.8c6.8,0,13-3.8,15.9-9.9c0.3-0.5,0.4-1.2,0.5-1.8c0-2.1-1.7-3.8-3.8-3.7c-1.4,0-2.7,0.8-3.3,2.1
		c-1.7,3.6-5.3,5.9-9.2,5.9c-3.9,0-7.4-2.2-9.1-5.7l-0.1-0.2c-1.1-1.8-3.4-2.3-5.2-1.2c-1.5,0.9-2.2,2.8-1.5,4.5
		C37.1,66.9,43.2,70.8,50,70.8z"/>
	<path d="M87.3,35.6c-0.8-1.9-3-2.7-4.9-1.9c-1.7,0.8-2.6,2.7-2,4.5c6.5,16.8-1.9,35.7-18.7,42.2C44.9,86.9,26,78.5,19.6,61.7
		C13.1,44.9,21.5,26,38.3,19.6c7.5-2.9,15.9-2.9,23.4,0c1.9,0.6,4-0.4,4.7-2.4c0.6-1.8-0.3-3.8-2-4.5c-20.6-7.9-43.8,2.4-51.7,23
		c-7.9,20.6,2.4,43.8,23,51.7c20.6,7.9,43.8-2.4,51.7-23C90.9,55.1,90.9,44.9,87.3,35.6z"/>
	<ellipse transform="matrix(0.7071 -0.7071 0.7071 0.7071 4.9775 60.6134)" cx="75.7" cy="24.3" rx="4.8" ry="4.8"/>
</g>
</svg>
