<svg viewBox="0 0 1024 1024" version="1.1" xmlns="http://www.w3.org/2000/svg"><title>狮子座 (7/23 - 8/22) Leo</title><path d="M353.171846 681.553724q18.094347 0 30.157244-12.565519t12.062898-29.654624-12.062898-29.654624-30.157244-12.565519q-17.089105 0-29.152003 12.565519t-12.062898 29.654624 12.062898 29.654624 29.152003 12.565519zM151.118309 639.333581q0-41.214901 15.581243-77.403594t42.722763-63.832834 63.330213-43.728004 77.403594-16.083864q-3.015724-24.125796-3.015724-51.267315 2.010483-65.340696 26.638899-111.581804t62.827593-73.885249 85.948147-38.199176 95.497941-4.523587 90.974354 28.146761 72.880007 58.304006 41.214901 86.450767-3.518345 113.592287q-23.120554 94.492699-59.309247 181.948708t-73.382628 168.880569q-17.089105 38.199176-15.581243 56.796144t11.560277 23.623175 21.612692-1.005241 14.576001-18.094347l154.807188 3.015724q-1.005241 48.251591-21.612692 82.429801t-52.775178 53.780419-71.874766 25.131037-77.403594-3.015724-69.361662-30.659865-49.256833-58.304006-16.083864-85.948147 29.654624-112.084425q38.199176-82.429801 68.859041-162.346499t54.785661-160.336016q9.047173-30.157244-5.026207-53.780419t-38.199176-34.680831-52.272557-8.544553-46.743729 22.617933-22.115313 60.81711 21.612692 106.052976q11.057656 28.146761 19.099588 60.81711t8.041932 66.848558l0 10.052415q0 42.220142-16.083864 78.911456t-43.225384 63.832834-63.832834 42.722763-77.906215 15.581243-77.906215-15.581243-63.832834-42.722763-43.225384-63.832834-16.083864-78.911456z" /></svg>