<?xml version="1.0" standalone="no"?><!DOCTYPE svg PUBLIC "-//W3C//DTD SVG 1.1//EN" "http://www.w3.org/Graphics/SVG/1.1/DTD/svg11.dtd"><svg viewBox="0 0 1024 1024" version="1.1" xmlns="http://www.w3.org/2000/svg" xmlns:xlink="http://www.w3.org/1999/xlink" fill="#dcdcdc"><path d="M153.6 460.8c0 15.36-5.12 25.6-15.36 35.84l-15.36 15.36 15.36 15.36c10.24 10.24 15.36 20.48 15.36 35.84v204.8c0 30.72 20.48 51.2 51.2 51.2s51.2 20.48 51.2 51.2-20.48 51.2-51.2 51.2c-87.04 0-153.6-66.56-153.6-153.6v-184.32l-35.84-35.84c-20.48-20.48-20.48-51.2 0-71.68l35.84-35.84V256c0-87.04 66.56-153.6 153.6-153.6 30.72 0 51.2 20.48 51.2 51.2s-20.48 51.2-51.2 51.2-51.2 20.48-51.2 51.2v204.8z m855.04 15.36c20.48 20.48 20.48 51.2 0 71.68l-35.84 35.84V768c0 87.04-66.56 153.6-153.6 153.6-30.72 0-51.2-20.48-51.2-51.2s20.48-51.2 51.2-51.2 51.2-20.48 51.2-51.2v-204.8c0-15.36 5.12-25.6 15.36-35.84l15.36-15.36-15.36-15.36c-10.24-10.24-15.36-20.48-15.36-35.84V256c0-30.72-20.48-51.2-51.2-51.2s-51.2-20.48-51.2-51.2 20.48-51.2 51.2-51.2c87.04 0 153.6 66.56 153.6 153.6v184.32l35.84 35.84z m-373.76-266.24c25.6 10.24 40.96 40.96 30.72 66.56l-204.8 512c-10.24 20.48-30.72 30.72-51.2 30.72-5.12 0-10.24 0-20.48-5.12-25.6-10.24-40.96-40.96-30.72-66.56l204.8-512c15.36-25.6 46.08-35.84 71.68-25.6z"></path></svg>