<?xml version="1.0" standalone="no"?><!DOCTYPE svg PUBLIC "-//W3C//DTD SVG 1.1//EN" "http://www.w3.org/Graphics/SVG/1.1/DTD/svg11.dtd"><svg viewBox="0 0 1024 1024" version="1.1" xmlns="http://www.w3.org/2000/svg" xmlns:xlink="http://www.w3.org/1999/xlink" fill="#dcdcdc"><path d="M801.9 801.9c29.1 0 52.7-23.6 52.7-52.7s-23.6-52.7-52.7-52.7-52.7 23.6-52.7 52.7 23.6 52.7 52.7 52.7zM222.1 327.5c29.1 0 52.7-23.6 52.7-52.7s-23.6-52.7-52.7-52.7-52.7 23.6-52.7 52.7 23.6 52.7 52.7 52.7z m149.1-105.4H960v105.4H371.2c-21.7 61.4-80.3 105.4-149.1 105.4-87.3 0-158.1-70.8-158.1-158.1s70.8-158.1 158.1-158.1c68.9 0 127.4 44 149.1 105.4z m281.6 579.8H64V696.5h588.8c21.7-61.4 80.3-105.4 149.1-105.4 87.3 0 158.1 70.8 158.1 158.1s-70.8 158.1-158.1 158.1c-68.9 0-127.4-44-149.1-105.4z"></path></svg>