<?xml version="1.0" encoding="utf-8"?>
<!-- Generator: Adobe Illustrator 20.0.0, SVG Export Plug-In . SVG Version: 6.00 Build 0)  -->
<svg version="1.1" id="图层_1" xmlns="http://www.w3.org/2000/svg" xmlns:xlink="http://www.w3.org/1999/xlink" x="0px" y="0px"
	 viewBox="0 0 100 100" style="enable-background:new 0 0 100 100;" xml:space="preserve">
<g>
	<path d="M88.7,38.5c-1-1.4-2.5-2.3-4.2-2.5l-3.9-0.6c-2.2-0.3-4.2,1.2-4.5,3.3c-0.3,2.2,1.2,4.2,3.3,4.5l1,0.1L66.7,57
		c-0.9,0.9-1.3,2.2-1.1,3.5l3.2,19.2l-17-9.1c-1.2-0.6-2.5-0.6-3.7,0l-17,9l3.2-19.2c0.2-1.3-0.2-2.6-1.1-3.5L19.5,43.4l19-2.8
		c1.3-0.2,2.4-1,3-2.2L49.9,21l5.6,11.5c1,2,3.3,2.8,5.3,1.8c2-1,2.8-3.3,1.8-5.3l-6.9-14.2c-1.1-2.2-3.3-3.6-5.8-3.6
		c-2.5,0-4.7,1.4-5.8,3.6l-8.9,18.2l-19.8,3c-3.5,0.5-6,3.7-5.5,7.3c0.2,1.4,0.8,2.7,1.8,3.7l14.4,14.2l-3.4,20v0.1
		c-0.2,1.4,0,2.8,0.7,4c1.7,3.1,5.6,4.3,8.7,2.6L50,78.5l17.7,9.4c0.9,0.5,2,0.8,3,0.8c0.3,0,0.6,0,0.9-0.1h0.1
		c3.5-0.6,5.9-3.9,5.3-7.4l-3.4-20.1L88.1,47C90.4,44.7,90.6,41.1,88.7,38.5z"/>
	<circle cx="68.2" cy="37.6" r="4"/>
</g>
</svg>
