<svg viewBox="0 0 3657 1024" version="1.1" xmlns="http://www.w3.org/2000/svg" xmlns:xlink="http://www.w3.org/1999/xlink"><path d="M409.6 749.714286H281.6c0-80.457143-25.6-149.942857-80.457143-208.457143C146.285714 482.742857 80.457143 453.485714 3.657143 453.485714V318.171429c98.742857 0 208.457143 36.571429 277.942857 113.371428 69.485714 76.8 128 212.114286 128 318.171429zM837.485714 1024c-113.371429-138.971429-168.228571-307.2-168.228571-504.685714C669.257143 318.171429 724.114286 146.285714 837.485714 3.657143h128c-113.371429 149.942857-171.885714 318.171429-171.885714 512 0 193.828571 54.857143 362.057143 168.228571 508.342857h-124.342857zM1371.428571 62.171429c0 106.057143-58.514286 241.371429-128 318.171428-73.142857 76.8-179.2 113.371429-277.942857 113.371429V358.4c76.8 0 142.628571-29.257143 197.485715-87.771429C1217.828571 212.114286 1243.428571 142.628571 1243.428571 62.171429h128z m687.542858 943.542857H1594.514286v-113.371429h464.457143v113.371429z m632.685714-512c-98.742857 0-226.742857-58.514286-299.885714-135.314286-73.142857-76.8-106.057143-190.171429-106.057143-296.228571H2413.714286c0 80.457143 25.6 149.942857 80.457143 208.457142 54.857143 58.514286 120.685714 87.771429 197.485714 87.771429v135.314286z" fill="#CCCCCC" p-id="4781"/><path d="M2691.657143 1024c113.371429-146.285714 168.228571-314.514286 168.228571-508.342857 0-193.828571-58.514286-365.714286-171.885714-512H2816c113.371429 142.628571 171.885714 314.514286 171.885714 515.657143S2929.371429 888.685714 2816 1024h-124.342857zM3657.142857 453.485714c-76.8 0-142.628571 29.257143-197.485714 87.771429-54.857143 58.514286-80.457143 128-80.457143 208.457143h-128c0-106.057143 36.571429-219.428571 106.057143-296.228572 73.142857-76.8 201.142857-135.314286 299.885714-135.314285v135.314285z"/></svg>