<svg version="1.1" xmlns="http://www.w3.org/2000/svg" viewBox="0 0 50 50" fill="#fff">
<g>
	<g>
		<path d="M27.8,38.6c-6.1,0-11.1-5-11.1-11.1s5-11.1,11.1-11.1s11.1,5,11.1,11.1S33.9,38.6,27.8,38.6z M27.8,18.5
			c-5,0-9.1,4.1-9.1,9.1c0,5,4.1,9.1,9.1,9.1c5,0,9.1-4.1,9.1-9.1C36.8,22.6,32.8,18.5,27.8,18.5z"/>
	</g>
	<g>
		<path d="M12.2,20.5c-0.6,0-1-0.4-1-1c0-4.5,3.6-8.1,8.1-8.1c0.6,0,1,0.4,1,1s-0.4,1-1,1c-3.4,0-6.1,2.7-6.1,6.1
			C13.2,20,12.7,20.5,12.2,20.5z"/>
	</g>
	<g>
		<path d="M27.8,33.9c-2.1,0-4.1-0.8-5.7-2.4c-0.4-0.4-0.4-1,0-1.4s1-0.4,1.4,0c2.4,2.4,6.2,2.4,8.6,0c0.4-0.4,1-0.4,1.4,0
			s0.4,1,0,1.4C31.9,33.2,29.8,33.9,27.8,33.9z"/>
	</g>
	<g>
		<path d="M16.1,20.2c-0.6,0-1-0.4-1-1c0-2.3,1.9-4.2,4.2-4.2c0.6,0,1,0.4,1,1s-0.4,1-1,1c-1.2,0-2.2,1-2.2,2.2
			C17.1,19.8,16.6,20.2,16.1,20.2z"/>
	</g>
	<g>
		<circle cx="24.1" cy="25.3" r="1.3"/>
		<circle cx="31.5" cy="25.5" r="1.3"/>
	</g>
</g>
</svg>
