<svg version="1.1" xmlns="http://www.w3.org/2000/svg" viewBox="0 0 26.5 26.6" fill="#fff">
<path d="M14.8,9.1c-1.3,0-2.6,0.5-3.7,1.3L9.4,8.6l1.5-1.5C11,6.9,11,6.6,10.8,6.3c-0.2-0.2-0.5-0.2-0.7,0L8.6,7.8L6.7,5.9
	C6.4,5.7,6.1,5.7,5.9,6c-0.2,0.2-0.2,0.5,0,0.7l1.9,1.9l-1.5,1.5c-0.2,0.2-0.3,0.6-0.1,0.8c0.2,0.2,0.6,0.3,0.8,0.1c0,0,0,0,0.1-0.1
	l1.5-1.5l1.7,1.8c-2.1,2.5-1.8,6.2,0.7,8.3s6.2,1.8,8.3-0.7s1.8-6.2-0.7-8.3C17.5,9.6,16.2,9.1,14.8,9.1z M14.8,19.7
	c-2.6,0-4.8-2.1-4.8-4.8s2.1-4.8,4.8-4.8s4.8,2.1,4.8,4.8C19.6,17.6,17.4,19.7,14.8,19.7z"/>
</svg>
