<svg version="1.1" xmlns="http://www.w3.org/2000/svg" fill="#fff">
<path d="M28,20.4c-2.1,0-4.2,0.8-5.7,2.3c-0.4,0.4-0.8,0.9-1.1,1.4C22.7,21.9,25.2,20.4,28,20.4z"/>
<path d="M20.7,24.7c0.1-0.1,0.1-0.2,0.2-0.3C20.9,24.6,20.8,24.6,20.7,24.7z"/>
<polygon points="19.7,28.8 19.7,28.8 19.7,28.8 "/>
<polygon points="28.1,37.2 28.1,37.2 28.1,37.2 "/>
<path d="M28.1,18.3c-2.4,0-4.7,0.8-6.5,2.3l-6.7-6.7h6.9c0.6,0,1-0.4,1-1c0-0.6-0.4-1-1-1h-9.3c-0.5,0-1,0.4-1,0.9c0,0,0,0.1,0,0.1
	v9.3c0,0.6,0.4,1,1,1s1-0.4,1-1v-6.9l6.7,6.7c-1.6,1.9-2.5,4.3-2.5,6.8c0.1,5.7,4.8,10.4,10.5,10.3c5.7-0.1,10.4-4.8,10.3-10.5
	C38.4,22.9,33.8,18.3,28.1,18.3z M28.1,37.2C28.1,37.2,28.1,37.2,28.1,37.2L28.1,37.2C28.1,37.2,28.1,37.2,28.1,37.2
	c-4.6,0-8.4-3.8-8.4-8.4c0,0,0,0,0,0c0,0,0,0,0,0s0,0,0,0c0-1.5,0.4-2.9,1-4.1c0.1-0.1,0.1-0.2,0.2-0.3c0.1-0.1,0.1-0.3,0.2-0.4
	c0.3-0.5,0.7-1,1.1-1.4c1.5-1.5,3.6-2.3,5.7-2.3c0,0,0,0,0.1,0c4.6,0,8.4,3.8,8.4,8.4C36.5,33.4,32.7,37.2,28.1,37.2z"/>
<path d="M19.7,28.8C19.7,28.8,19.7,28.8,19.7,28.8c0-1.4,0.4-2.8,1-4.1C20.1,25.9,19.7,27.3,19.7,28.8z"/>
<path d="M20.9,24.5c0.1-0.1,0.1-0.3,0.2-0.4C21.1,24.2,21,24.3,20.9,24.5z"/>
<path d="M19.7,28.8c0,4.6,3.8,8.4,8.4,8.4C23.5,37.2,19.7,33.4,19.7,28.8z"/>
</svg>
