<?xml version="1.0" encoding="utf-8"?>
<!-- Generator: Adobe Illustrator 19.2.1, SVG Export Plug-In . SVG Version: 6.00 Build 0)  -->
<!DOCTYPE svg PUBLIC "-//W3C//DTD SVG 1.1//EN" "http://www.w3.org/Graphics/SVG/1.1/DTD/svg11.dtd">
<svg version="1.1" id="Layer_1" xmlns="http://www.w3.org/2000/svg" xmlns:xlink="http://www.w3.org/1999/xlink" x="0px" y="0px"
	 viewBox="0 0 50 50" style="enable-background:new 0 0 50 50;" xml:space="preserve">
<path d="M31.9,19.9c2.4,0,4.4-2,4.4-4.4c0-2.4-2-4.4-4.4-4.4c-2.4,0-4.4,2-4.4,4.4c0,0.6,0.1,1.1,0.3,1.6l-8.7,5.1
	c-0.8-0.8-1.9-1.3-3.1-1.3c-2.4,0-4.4,2-4.4,4.4c0,2.4,2,4.4,4.4,4.4c1.2,0,2.3-0.5,3.1-1.3l8.6,5.4c-0.2,0.5-0.3,1-0.3,1.5
	c0,2.4,2,4.4,4.4,4.4c2.4,0,4.4-2,4.4-4.4c0-2.4-2-4.4-4.4-4.4c-1.3,0-2.4,0.5-3.2,1.4l-8.6-5.4c0.2-0.5,0.3-1,0.3-1.5
	c0-0.6-0.1-1.1-0.3-1.6l8.7-5.1C29.6,19.4,30.7,19.9,31.9,19.9z M31.9,32.6c1.4,0,2.6,1.2,2.6,2.6c0,1.4-1.2,2.6-2.6,2.6
	c-1.4,0-2.6-1.2-2.6-2.6c0-0.5,0.1-0.9,0.4-1.3c0,0,0,0,0,0c0,0,0,0,0,0C30.2,33.1,31,32.6,31.9,32.6z M16.1,27.8
	c-1.4,0-2.6-1.2-2.6-2.6c0-1.4,1.2-2.6,2.6-2.6c0.8,0,1.6,0.4,2.1,1c0,0,0,0.1,0,0.1c0,0.1,0.1,0.1,0.2,0.2c0.2,0.4,0.4,0.8,0.4,1.3
	c0,0.5-0.2,1-0.4,1.4c0,0,0,0,0,0c0,0,0,0,0,0C17.8,27.3,17,27.8,16.1,27.8z M31.9,12.9c1.4,0,2.6,1.2,2.6,2.6
	c0,1.4-1.2,2.6-2.6,2.6c-1.4,0-2.6-1.2-2.6-2.6C29.3,14,30.5,12.9,31.9,12.9z"/>
</svg>
