<?xml version="1.0" encoding="utf-8"?>
<!-- Generator: Adobe Illustrator 19.2.1, SVG Export Plug-In . SVG Version: 6.00 Build 0)  -->
<!DOCTYPE svg PUBLIC "-//W3C//DTD SVG 1.1//EN" "http://www.w3.org/Graphics/SVG/1.1/DTD/svg11.dtd">
<svg version="1.1" id="图层_1" xmlns="http://www.w3.org/2000/svg" xmlns:xlink="http://www.w3.org/1999/xlink" x="0px" y="0px"
	 viewBox="0 0 50 50" style="enable-background:new 0 0 50 50;" xml:space="preserve">
<style type="text/css">
	.st0{fill:#999999;}
</style>
<path class="st0" d="M17.7,28.7l-2.1,9.1c-0.1,0.4,0.1,0.7,0.4,0.9c0.3,0.2,0.7,0.3,1,0.1l8.2-4.9l8.2,4.9c0.2,0.1,0.3,0.1,0.5,0.1
	c0.2,0,0.4-0.1,0.6-0.2c0.3-0.2,0.5-0.6,0.4-0.9l-2.3-9.1l7.2-6.2c0.3-0.3,0.4-0.7,0.3-1s-0.5-0.7-0.8-0.7l-9.5-0.7l-3.7-8.7
	c0-0.3-0.4-0.5-0.7-0.5c-0.4,0-0.7,0.2-0.8,0.6l-3.7,8.7L11,21c-0.4,0-0.7,0.3-0.8,0.7c-0.1,0.4,0,0.7,0.3,1L17.7,28.7z M21.2,22
	c0.4,0,0.7-0.3,0.7-0.6l3.1-7.2l3.1,7.2c0.1,0.3,0.5,0.6,0.7,0.6l7.8,0.7l-6,5c-0.3,0.2-0.4,0.6-0.3,0.9l1.8,7.6l-6.7-4
	c-0.3-0.2-0.7-0.2-0.9,0l-6.7,4l1.8-7.6c0.1-0.4,0-0.7-0.3-0.9l-6-5L21.2,22z"/>
</svg>
