<svg viewBox="0 0 1024 1024" version="1.1" xmlns="http://www.w3.org/2000/svg"><title>双鱼座 (2/19 - 3/20) Pisces</title><path d="M564.224 473.088q10.24-114.688 54.272-208.896t112.64-157.696l167.936 0q-68.608 63.488-107.52 157.696t-47.104 208.896l134.144 0 0 151.552-131.072 0q11.264 105.472 50.688 192t103.936 144.896l-166.912 0q-64.512-58.368-109.056-144.896t-58.88-192l-109.568 0q-14.336 105.472-58.368 192t-109.568 144.896l-166.912 0q64.512-58.368 103.936-144.896t50.688-192l-142.336 0 0-151.552 146.432 0q-8.192-114.688-47.104-208.896t-107.52-157.696l166.912 0q68.608 63.488 113.152 157.696t53.76 208.896l103.424 0z" /></svg>