<svg xmlns="http://www.w3.org/2000/svg" viewBox="0 0 91 29.9"><path d="M16.2,58.2a10.5,10.5,0,0,0,8-3.2,10.3,10.3,0,0,0,2.7-7.4,12.3,12.3,0,0,0-.2-2H16.2v3.1h7.5a6.5,6.5,0,0,1-1.7,4A7.7,7.7,0,0,1,16.2,55a8.4,8.4,0,0,1,0-16.8,8.5,8.5,0,0,1,5.7,2.2l2.2-2.2A11,11,0,0,0,16.2,35a11.6,11.6,0,1,0,0,23.2Z" transform="translate(-4.5 -35)" style="fill:#4285f4"/><path d="M35.5,43.3a7.4,7.4,0,1,0,7.4,7.4A7.3,7.3,0,0,0,35.5,43.3Zm0,11.9a4.4,4.4,0,0,1-4.2-4.5,4.2,4.2,0,0,1,4.2-4.5,4.3,4.3,0,0,1,4.2,4.5A4.2,4.2,0,0,1,35.5,55.2Z" transform="translate(-4.5 -35)" style="fill:#eb4335"/><path d="M51.8,43.3a7.4,7.4,0,1,0,7.4,7.4A7.3,7.3,0,0,0,51.8,43.3Zm0,11.9a4.4,4.4,0,0,1-4.2-4.5,4.2,4.2,0,1,1,8.4,0A4.4,4.4,0,0,1,51.8,55.2Z" transform="translate(-4.5 -35)" style="fill:#fbbc05"/><path d="M71.7,43.8V45h-.1a5,5,0,0,0-3.9-1.7,7.4,7.4,0,0,0,0,14.8,5,5,0,0,0,3.9-1.7h.1v1.1c0,2.8-1.5,4.4-4,4.4A4,4,0,0,1,64,59.3l-2.8,1.2A7.1,7.1,0,0,0,67.8,65c3.8,0,7-2.2,7-7.7V43.8ZM67.9,55.2a4.5,4.5,0,0,1,0-9,4.2,4.2,0,0,1,4,4.5C71.9,53.4,70.1,55.2,67.9,55.2Z" transform="translate(-4.5 -35)" style="fill:#4285f4"/><rect x="72.5" y="0.9" width="3.3" height="21.8" style="fill:#34a753"/><path d="M89.2,55.2A3.9,3.9,0,0,1,85.6,53l9.9-4.1-.3-.8a6.8,6.8,0,0,0-6.3-4.7,7.1,7.1,0,0,0-7,7.4,7.2,7.2,0,0,0,7.4,7.4A7.4,7.4,0,0,0,95.5,55L93,53.2A4.8,4.8,0,0,1,89.2,55.2Zm-.3-9a2.9,2.9,0,0,1,2.8,1.6l-6.6,2.8A4.1,4.1,0,0,1,88.9,46.2Z" transform="translate(-4.5 -35)" style="fill:#eb4335"/></svg>